<?xml version="1.0" encoding="UTF-8" standalone="no"?>
<svg
   xmlns:dc="http://purl.org/dc/elements/1.1/"
   xmlns:cc="http://creativecommons.org/ns#"
   xmlns:rdf="http://www.w3.org/1999/02/22-rdf-syntax-ns#"
   xmlns:svg="http://www.w3.org/2000/svg"
   xmlns="http://www.w3.org/2000/svg"
   xmlns:sodipodi="http://sodipodi.sourceforge.net/DTD/sodipodi-0.dtd"
   xmlns:inkscape="http://www.inkscape.org/namespaces/inkscape"
   viewBox="0 0 455.53 77.24"
   version="1.1"
   id="svg28"
   sodipodi:docname="banner.svg"
   inkscape:version="0.92.3 (2405546, 2018-03-11)">
  <metadata
     id="metadata32">
    <rdf:RDF>
      <cc:Work
         rdf:about="">
        <dc:format>image/svg+xml</dc:format>
        <dc:type
           rdf:resource="http://purl.org/dc/dcmitype/StillImage" />
      </cc:Work>
    </rdf:RDF>
  </metadata>
  <sodipodi:namedview
     pagecolor="#ffffff"
     bordercolor="#666666"
     borderopacity="1"
     objecttolerance="10"
     gridtolerance="10"
     guidetolerance="10"
     inkscape:pageopacity="0"
     inkscape:pageshadow="2"
     inkscape:window-width="3133"
     inkscape:window-height="1233"
     id="namedview30"
     showgrid="false"
     inkscape:zoom="4.9875968"
     inkscape:cx="304.78"
     inkscape:cy="6.6945089"
     inkscape:window-x="285"
     inkscape:window-y="256"
     inkscape:window-maximized="0"
     inkscape:current-layer="svg28" />
  <defs
     id="defs4">
    <style
       id="style2">.cls-1{fill:#fff;}.cls-2{fill:#098443;}.cls-3{fill:#005731;}</style>
  </defs>
  <title
     id="title6">Asset 1</title>
  <polygon
     class="cls-1"
     points="455.53,0 0,0 0,77.24 455.53,77.24 "
     id="polygon8"
     style="fill:#ffffff" />
  <path
     class="cls-2"
     d="M 455.6,77.24 V 0 H 229.84 L 153.68,77.24 Z M 156.95,0 H -1 V 77.24 H 46.85 L 34.16,64.12 C 24.097365,54.057365 24.09738,37.742636 34.160008,27.680008 44.222636,17.61738 60.537365,17.617365 70.6,27.68 L 99.93,57 l 57,-57 z"
     id="path10"
     inkscape:connector-curvature="0"
     style="fill:#098443"
     sodipodi:nodetypes="ccccccccccscccc" />
  <path
     style="fill:#005731"
     d="M 456.6,0 H 278.5 l 68.74,77.24 H 456.6 Z"
     id="polygon12"
     inkscape:connector-curvature="0"
     sodipodi:nodetypes="ccccc" />
  <path
     class="cls-1"
     d="m 345.67,50 a 2.74,2.74 0 0 0 2.89,2.81 h 9.67 a 2.54,2.54 0 0 0 2.66,-2.59 2.5,2.5 0 0 0 -2.66,-2.59 H 351.3 V 42 h 6.15 a 2.58,2.58 0 0 0 2.74,-2.59 2.54,2.54 0 0 0 -2.74,-2.59 h -6.15 v -5.51 h 6.6 a 2.54,2.54 0 0 0 2.66,-2.59 2.5,2.5 0 0 0 -2.66,-2.59 h -9.3 c -2,0 -2.92,1.39 -2.92,3.26 V 50 Z m 19.65,0 a 2.71,2.71 0 1 0 5.4,0 V 37.61 h 1.54 a 2.28,2.28 0 0 0 2.59,-2.36 c 0,-1.72 -1.2,-2.36 -2.59,-2.36 h -1.54 v -3.23 a 2.71,2.71 0 1 0 -5.4,0 v 3.23 h -1.2 a 2.31,2.31 0 0 0 -2.36,2.36 2.19,2.19 0 0 0 2.36,2.36 h 1.2 v 12.45 z m 11.29,0 a 2.71,2.71 0 1 0 5.4,0 v -9.35 c 0,-2.1 1.24,-3.71 3.45,-3.71 a 3.36,3.36 0 0 1 3.54,3.71 v 9.41 a 2.71,2.71 0 1 0 5.4,0 V 39.71 c 0,-4.58 -3.15,-7.28 -7.39,-7.28 -1.69,0 -3.79,0.49 -4.91,1.88 H 382 V 27 a 2.71,2.71 0 1 0 -5.4,0 v 23.1 z m 21.15,0 a 2.72,2.72 0 1 0 5.4,0 V 35.66 a 2.72,2.72 0 1 0 -5.4,0 v 14.4 z m 2.7,-25.5 a 3.11,3.11 0 0 0 -3,3 3.17,3.17 0 0 0 3,3.11 3.04,3.04 0 1 0 0,-6.08 z M 422,35.85 c 0,-2.62 -4.46,-3.41 -6.6,-3.41 -5.7,0 -9.68,5 -9.68,10.46 0,5.46 3.86,10.39 9.68,10.39 2,0 6.6,-0.94 6.6,-3.71 a 2.37,2.37 0 0 0 -2.33,-2.36 c -0.64,0 -2.66,1.13 -4,1.13 -2.92,0 -4.54,-2.78 -4.54,-5.44 0,-2.66 1.46,-5.51 4.54,-5.51 1.72,0 2.93,1 4.28,1 1.35,0 2.05,-1.4 2.05,-2.55 z m 15.83,0.49 c 0,-2.66 -4.09,-3.9 -6.75,-3.9 -4.28,0 -7.31,2.55 -7.31,6.3 0,6.19 9.38,5.81 9.38,8.29 0,1 -0.49,1.54 -2.14,1.54 -2.55,0 -3.49,-1.84 -5.59,-1.84 a 2.55,2.55 0 0 0 -2.32,2.4 c 0,2.44 4.5,4.16 7.54,4.16 4.65,0 7.69,-2.74 7.69,-6.34 0,-6.15 -9.37,-5.77 -9.37,-8.29 0,-1 0.86,-1.5 1.84,-1.5 1.76,0 3.82,1.58 4.84,1.58 a 2.33,2.33 0 0 0 2.21,-2.4 z"
     id="path14"
     inkscape:connector-curvature="0"
     style="fill:#ffffff" />
  <path
     class="cls-1"
     d="m 239.62,55 a 3.24,3.24 0 0 0 -3.47,3.18 c 0,3.25 4.68,2.25 4.68,3.91 0,0.69 -0.5,1.2 -1.43,1.2 -0.93,0 -1.69,-0.55 -2.35,-0.55 a 0.93,0.93 0 0 0 -0.94,1 c 0,1.31 2.32,1.57 3.4,1.57 A 3.32,3.32 0 0 0 243.09,62 c 0,-3.61 -4.68,-2.69 -4.68,-4.13 0,-0.59 0.55,-0.91 1.15,-0.91 0.84,0 1.29,0.42 1.86,0.42 a 1,1 0 0 0 0.94,-1 c 0,-1.11 -2,-1.4 -2.74,-1.4 z m 4.45,9.1 a 1,1 0 1 0 2,0 v -3.55 a 1.31,1.31 0 1 1 2.61,0 v 3.51 a 1,1 0 1 0 2,0 V 60.2 a 2.58,2.58 0 0 0 -2.68,-2.72 2.41,2.41 0 0 0 -1.84,0.7 v 0 -2.74 a 1,1 0 1 0 -2,0 v 8.62 z m 14.81,-5.18 c 0,-0.52 0,-1.31 -1,-1.31 a 1,1 0 0 0 -1,0.84 2.31,2.31 0 0 0 -1.92,-0.92 c -1.85,0 -3.33,1.69 -3.33,3.91 0,2.22 1.44,3.88 3.33,3.88 a 2.41,2.41 0 0 0 1.92,-0.94 c 0.14,0.53 0.38,0.85 1,0.85 1,0 1,-0.8 1,-1.31 z m -5.17,2.51 c 0,-1 0.49,-2.06 1.6,-2.06 1.11,0 1.55,1.09 1.55,2.06 0,0.97 -0.5,2 -1.55,2 -1.05,0 -1.6,-1.06 -1.6,-2 z m 6.43,2.67 a 1,1 0 1 0 2,0 V 61 c 0,-0.8 0.62,-1.06 1.22,-1.34 0.6,-0.28 1.2,-0.32 1.2,-1 a 1,1 0 0 0 -1,-1.08 1.59,1.59 0 0 0 -1.41,0.84 v 0 c 0,-0.64 -0.45,-0.84 -1,-0.84 a 1,1 0 0 0 -1,1 v 5.49 z m 10.5,-2 c 0.62,0 0.88,-0.29 0.88,-0.89 a 3.6219884,3.6219884 0 1 0 -7.24,0.24 3.67,3.67 0 0 0 3.78,3.88 c 1.5,0 3.29,-0.84 3.29,-1.71 a 0.9,0.9 0 0 0 -0.82,-0.87 c -0.53,0 -1.25,0.81 -2.28,0.81 A 1.74,1.74 0 0 1 266.35,62 Z m -4.34,-1.34 a 1.62,1.62 0 0 1 1.6,-1.54 1.6,1.6 0 0 1 1.61,1.54 z m 10.64,3.47 a 1.09,1.09 0 1 0 1.06,-1.15 1.09,1.09 0 0 0 -1.09,1.09 z m 4.66,0 a 1.09,1.09 0 1 0 1.09,-1.09 1.09,1.09 0 0 0 -1.09,1.09 z m 4.66,0 a 1.09,1.09 0 1 0 1.09,-1.09 1.09,1.09 0 0 0 -1.09,1.09 z"
     id="path16"
     inkscape:connector-curvature="0"
     style="fill:#ffffff" />
  <path
     class="cls-1"
     d="m 236.47,50 a 1,1 0 0 0 1.08,1 h 3.61 a 1,1 0 0 0 1,-1 0.93,0.93 0 0 0 -1,-1 h -2.59 v -2 h 2.3 a 1,1 0 0 0 1,-1 1,1 0 0 0 -1,-1 h -2.3 V 43 H 241 a 1,1 0 0 0 1,-1 0.93,0.93 0 0 0 -1,-1 h -3.47 c -0.74,0 -1.09,0.52 -1.09,1.22 V 50 Z m 6.27,-0.53 a 1.15,1.15 0 0 0 -0.28,0.69 0.94,0.94 0 0 0 1,1 1,1 0 0 0 0.84,-0.45 l 1.67,-2 1.67,2 a 1,1 0 0 0 0.84,0.45 0.94,0.94 0 0 0 1,-1 1.15,1.15 0 0 0 -0.28,-0.69 l -2,-2.32 1.71,-1.92 a 1.21,1.21 0 0 0 0.31,-0.73 1.05,1.05 0 0 0 -1,-1 0.9,0.9 0 0 0 -0.74,0.39 L 246,45.72 244.55,44 a 0.9,0.9 0 0 0 -0.74,-0.39 1.05,1.05 0 0 0 -1,1 1.21,1.21 0 0 0 0.31,0.73 l 1.71,1.92 -2,2.32 z m 7.44,3.53 a 1,1 0 1 0 2,0 v -2.44 a 2.88,2.88 0 0 0 1.85,0.7 3.56,3.56 0 0 0 3.32,-3.79 c 0,-2 -1.08,-4 -3.25,-4 a 2.24,2.24 0 0 0 -1.92,0.92 1,1 0 0 0 -1,-0.84 1,1 0 0 0 -1,1.12 z m 2,-5.71 c 0,-1 0.5,-2 1.58,-2 1.08,0 1.57,1.11 1.57,2.06 0,0.95 -0.52,2 -1.57,2 -1.05,0 -1.58,-1.12 -1.58,-2.1 z m 6.13,2.74 a 1,1 0 1 0 2,0 v -8.59 a 1,1 0 1 0 -2,0 v 8.62 z m 10.16,-5.18 c 0,-0.52 0,-1.31 -1,-1.31 a 1,1 0 0 0 -1,0.84 2.31,2.31 0 0 0 -1.92,-0.92 c -1.85,0 -3.33,1.69 -3.33,3.91 0,2.22 1.44,3.88 3.33,3.88 a 2.41,2.41 0 0 0 1.92,-0.94 c 0.14,0.53 0.38,0.85 1,0.85 1,0 1,-0.8 1,-1.31 z m -5.17,2.51 c 0,-1 0.49,-2.06 1.6,-2.06 1.11,0 1.55,1.09 1.55,2.06 0,0.97 -0.5,2 -1.55,2 -1.05,0 -1.6,-1.06 -1.6,-2 z m 6.43,2.67 a 1,1 0 1 0 2,0 v -5.35 a 1,1 0 1 0 -2,0 v 5.37 z m 1,-9.52 a 1.16,1.16 0 0 0 -1.13,1.11 1.18,1.18 0 0 0 1.13,1.16 1.135,1.135 0 1 0 0,-2.27 z m 2.27,9.55 a 1,1 0 1 0 2,0 v -3.51 a 1.31,1.31 0 1 1 2.61,0 v 3.51 a 1,1 0 1 0 2,0 V 46.2 a 2.58,2.58 0 0 0 -2.76,-2.71 2.18,2.18 0 0 0 -1.95,0.83 0.85,0.85 0 0 0 -0.92,-0.74 1,1 0 0 0 -1,1.12 v 5.38 z m 12.49,0.11 a 1.09,1.09 0 1 0 1.09,-1.09 1.09,1.09 0 0 0 -1.09,1.09 z m 4.66,0 a 1.09,1.09 0 1 0 1.09,-1.09 1.09,1.09 0 0 0 -1.09,1.09 z m 4.66,0 a 1.09,1.09 0 1 0 1.09,-1.09 1.09,1.09 0 0 0 -1.09,1.09 z"
     id="path18"
     inkscape:connector-curvature="0"
     style="fill:#ffffff" />
  <path
     class="cls-1"
     d="m 236.47,36 a 1,1 0 0 0 1.12,1.06 h 2.89 c 1.93,0 3.25,-1.06 3.25,-3 a 2.44,2.44 0 0 0 -2.13,-2.38 v 0 a 2.07,2.07 0 0 0 1.3,-2.06 2.47,2.47 0 0 0 -2.63,-2.46 h -2.69 a 1,1 0 0 0 -1.11,1 z m 2.1,-7.06 h 1.09 a 1,1 0 0 1 1.13,1 1,1 0 0 1 -1.13,1.11 h -1.09 V 29 Z m 0,3.95 h 1.49 c 1,0 1.48,0.45 1.48,1.11 a 1.19,1.19 0 0 1 -1.32,1.22 h -1.65 v -2.3 z m 6,1.4 c 0,1.79 1.19,2.94 3.32,2.94 2.13,0 3.32,-1.15 3.32,-2.94 v -3.61 a 1,1 0 1 0 -2,0 v 3.6 a 1.305,1.305 0 0 1 -2.61,0 v -3.6 a 1,1 0 1 0 -2,0 v 3.64 z m 7.9,1.73 a 1,1 0 1 0 2,0 v -5.34 a 1,1 0 1 0 -2,0 v 5.37 z m 1,-9.52 a 1.16,1.16 0 0 0 -1.13,1.11 1.18,1.18 0 0 0 1.13,1.16 1.135,1.135 0 1 0 0,-2.27 z m 2.24,9.52 a 1,1 0 1 0 2,0 v -8.58 a 1,1 0 1 0 -2,0 v 8.62 z m 10.16,-8.62 a 1,1 0 1 0 -2,0 v 2.74 a 2.92,2.92 0 0 0 -1.92,-0.7 c -2.17,0 -3.25,2 -3.25,4 a 3.56,3.56 0 0 0 3.3,3.82 2.2,2.2 0 0 0 1.85,-0.92 1,1 0 0 0 1,0.84 1,1 0 0 0 1,-1.12 v -8.62 z m -2,5.88 c 0,1 -0.48,2.1 -1.58,2.1 -1.1,0 -1.57,-1.09 -1.57,-2 0,-0.91 0.52,-2.06 1.57,-2.06 1.05,0 1.58,1 1.58,2 z m 7.87,2.86 a 1.09,1.09 0 1 0 1.09,-1.09 1.09,1.09 0 0 0 -1.09,1.09 z m 4.66,0 a 1.09,1.09 0 1 0 1.09,-1.09 1.09,1.09 0 0 0 -1.09,1.09 z m 4.66,0 a 1.09,1.09 0 1 0 1.09,-1.09 1.09,1.09 0 0 0 -1.09,1.09 z"
     id="path20"
     inkscape:connector-curvature="0"
     style="fill:#ffffff" />
  <path
     class="cls-1"
     d="m 238.15,22.09 a 1.05,1.05 0 1 0 2.1,0 v -7 h 1.53 a 0.9,0.9 0 0 0 1,-1 0.94,0.94 0 0 0 -1,-1 h -5.15 a 0.94,0.94 0 0 0 -1,1 0.9,0.9 0 0 0 1,1 h 1.53 v 7 z m 5.12,0 a 1,1 0 1 0 2,0 v -3.54 a 1.31,1.31 0 1 1 2.61,0 v 3.51 a 1,1 0 1 0 2,0 V 18.2 a 2.58,2.58 0 0 0 -2.76,-2.71 2.41,2.41 0 0 0 -1.83,0.7 v 0 -2.75 a 1,1 0 1 0 -2,0 v 8.62 z m 7.9,0 a 1,1 0 1 0 2,0 v -5.41 a 1,1 0 1 0 -2,0 v 5.37 z m 1,-9.52 a 1.16,1.16 0 0 0 -1.17,1.08 1.18,1.18 0 0 0 1.13,1.16 1.135,1.135 0 1 0 0,-2.27 z m 2.27,9.52 a 1,1 0 1 0 2,0 v -3.54 a 1.31,1.31 0 1 1 2.61,0 v 3.51 a 1,1 0 1 0 2,0 V 18.2 a 2.58,2.58 0 0 0 -2.76,-2.71 2.18,2.18 0 0 0 -1.95,0.83 0.85,0.85 0 0 0 -0.92,-0.74 1,1 0 0 0 -1,1.12 v 5.38 z m 7.92,0 a 1,1 0 1 0 2,0 v -2.48 0 l 2.46,3 c 0.32,0.39 0.6,0.62 1,0.62 a 0.94,0.94 0 0 0 1,-1 1,1 0 0 0 -0.25,-0.67 l -2.37,-2.77 1.79,-1.6 a 1,1 0 0 0 0.39,-0.8 0.9,0.9 0 0 0 -0.85,-0.91 1.36,1.36 0 0 0 -0.91,0.43 l -2.21,2.14 v -4.7 a 1,1 0 1 0 -2,0 v 8.62 z m 11.7,0.11 a 1.09,1.09 0 1 0 1.09,-1.09 1.09,1.09 0 0 0 -1.09,1.09 z m 4.66,0 a 1.09,1.09 0 1 0 1.09,-1.09 1.09,1.09 0 0 0 -1.09,1.09 z m 4.66,0 a 1.09,1.09 0 1 0 1.09,-1.09 1.09,1.09 0 0 0 -1.09,1.09 z"
     id="path22"
     inkscape:connector-curvature="0"
     style="fill:#ffffff" />
  <path
     class="cls-2"
     d="m 366.13,66.13 h -0.94 a 0.45,0.45 0 1 0 0,0.9 H 366 l -0.19,1.36 a 0.94,0.94 0 0 0 0,0.23 0.4,0.4 0 0 0 0.43,0.38 c 0.28,0 0.42,-0.11 0.47,-0.45 L 366.9,67 h 0.9 l -0.19,1.36 a 0.94,0.94 0 0 0 0,0.23 A 0.4,0.4 0 0 0 368,69 c 0.28,0 0.42,-0.11 0.47,-0.45 L 368.7,67 h 0.94 a 0.45,0.45 0 1 0 0,-0.9 h -0.81 l 0.15,-1.07 h 0.94 a 0.45,0.45 0 0 0 0,-0.9 h -0.81 l 0.19,-1.36 a 0.94,0.94 0 0 0 0,-0.23 0.4,0.4 0 0 0 -0.43,-0.37 c -0.28,0 -0.42,0.11 -0.47,0.45 l -0.21,1.51 h -0.9 l 0.19,-1.36 a 0.94,0.94 0 0 0 0,-0.23 0.4,0.4 0 0 0 -0.43,-0.37 c -0.28,0 -0.42,0.11 -0.47,0.45 l -0.21,1.51 h -0.94 a 0.45,0.45 0 1 0 0,0.9 h 0.81 l -0.15,1.07 z m 1.06,-1.07 h 0.89 l -0.15,1.07 H 367 l 0.15,-1.07 z m 3.69,3.2 a 0.7,0.7 0 1 0 1.4,0 v -5.33 a 0.7,0.7 0 1 0 -1.4,0 v 5.32 z m 6.92,-3.49 c 0,-0.35 0,-0.88 -0.65,-0.88 a 0.64,0.64 0 0 0 -0.65,0.56 1.55,1.55 0 0 0 -1.29,-0.62 2.42,2.42 0 0 0 -2.21,2.62 2.36,2.36 0 0 0 2.23,2.6 1.62,1.62 0 0 0 1.28,-0.63 c 0.1,0.36 0.25,0.57 0.65,0.57 0.65,0 0.65,-0.53 0.65,-0.88 v -3.34 z m -3.46,1.68 c 0,-0.65 0.33,-1.38 1.07,-1.38 0.74,0 1,0.73 1,1.38 0,0.65 -0.34,1.36 -1,1.36 -0.66,0 -1.07,-0.71 -1.07,-1.36 z m 4.32,1.79 a 0.68,0.68 0 1 0 1.35,0 v -2.36 c 0,-0.54 0.24,-0.93 0.8,-0.93 0.56,0 0.79,0.38 0.79,0.93 v 2.35 a 0.68,0.68 0 1 0 1.35,0 v -2.35 a 0.82,0.82 0 0 1 0.8,-0.93 c 0.49,0 0.79,0.38 0.79,0.93 v 2.35 a 0.68,0.68 0 1 0 1.35,0 v -2.58 a 1.69,1.69 0 0 0 -1.89,-1.82 2,2 0 0 0 -1.43,0.68 1.72,1.72 0 0 0 -1.4,-0.68 1.68,1.68 0 0 0 -1.26,0.56 0.57,0.57 0 0 0 -0.62,-0.51 0.68,0.68 0 0 0 -0.67,0.75 v 3.6 z m 8.12,0 a 0.68,0.68 0 0 0 0.72,0.7 h 2.42 a 0.63,0.63 0 0 0 0.67,-0.65 0.62,0.62 0 0 0 -0.67,-0.65 h -1.73 V 66.2 h 1.54 a 0.65,0.65 0 0 0 0.68,-0.65 0.63,0.63 0 0 0 -0.68,-0.65 h -1.54 v -1.35 h 1.65 a 0.63,0.63 0 0 0 0.67,-0.65 0.62,0.62 0 0 0 -0.67,-0.65 h -2.32 c -0.5,0 -0.73,0.35 -0.73,0.81 v 5.16 z m 4.73,0 a 0.68,0.68 0 1 0 1.35,0 v -3.12 h 0.38 a 0.57,0.57 0 0 0 0.65,-0.59 c 0,-0.43 -0.3,-0.59 -0.65,-0.59 h -0.38 v -0.81 a 0.68,0.68 0 1 0 -1.35,0 v 0.81 h -0.3 a 0.58,0.58 0 0 0 -0.59,0.59 0.55,0.55 0 0 0 0.59,0.59 h 0.3 v 3.11 z m 2.54,0 a 0.68,0.68 0 1 0 1.35,0 v -2.36 a 0.87,0.87 0 1 1 1.74,0 v 2.35 a 0.68,0.68 0 1 0 1.35,0 v -2.58 a 1.73,1.73 0 0 0 -1.85,-1.82 1.61,1.61 0 0 0 -1.23,0.47 v 0 -1.84 a 0.68,0.68 0 1 0 -1.35,0 v 5.77 z m 5.29,0 a 0.68,0.68 0 1 0 1.35,0 v -3.6 a 0.68,0.68 0 1 0 -1.35,0 z m 0.67,-6.37 a 0.78,0.78 0 0 0 -0.76,0.74 0.79,0.79 0 0 0 0.76,0.78 0.76,0.76 0 1 0 0,-1.52 z m 5.39,2.82 c 0,-0.66 -1.11,-0.85 -1.65,-0.85 a 2.51,2.51 0 0 0 -2.42,2.62 2.45,2.45 0 0 0 2.42,2.6 c 0.49,0 1.65,-0.23 1.65,-0.93 a 0.59,0.59 0 0 0 -0.58,-0.59 7.42,7.42 0 0 1 -1,0.28 1.24,1.24 0 0 1 -1.13,-1.36 c 0,-0.69 0.37,-1.38 1.13,-1.38 0.43,0 0.73,0.26 1.07,0.26 0.34,0 0.52,-0.37 0.52,-0.65 z m 0.26,3.34 a 0.8,0.8 0 0 0 -0.07,0.31 0.67,0.67 0 0 0 0.69,0.66 0.65,0.65 0 0 0 0.67,-0.5 l 0.28,-0.87 h 2.61 l 0.28,0.88 a 0.66,0.66 0 0 0 0.68,0.49 0.62,0.62 0 0 0 0.65,-0.62 1.1,1.1 0 0 0 -0.07,-0.35 l -1.84,-5.1 a 1.06,1.06 0 0 0 -1,-0.78 1.1,1.1 0 0 0 -1,0.78 L 405.66,68 Z m 2.88,-4.42 v 0 l 0.87,2.72 h -1.78 l 0.89,-2.72 z m 3.46,4.55 a 0.69,0.69 0 0 0 0.73,0.77 h 2.34 a 0.66,0.66 0 0 0 0.67,-0.62 0.64,0.64 0 0 0 -0.67,-0.67 h -1.67 v -4.71 a 0.7,0.7 0 1 0 -1.4,0 z m 4.09,0 a 0.69,0.69 0 0 0 0.73,0.77 h 2.34 a 0.66,0.66 0 0 0 0.67,-0.62 0.64,0.64 0 0 0 -0.67,-0.67 h -1.67 v -4.71 a 0.7,0.7 0 1 0 -1.4,0 z"
     id="path24"
     inkscape:connector-curvature="0"
     style="fill:#098443" />
</svg>
