<?xml version="1.0" encoding="UTF-8" standalone="no"?>
<svg
   xmlns:dc="http://purl.org/dc/elements/1.1/"
   xmlns:cc="http://creativecommons.org/ns#"
   xmlns:rdf="http://www.w3.org/1999/02/22-rdf-syntax-ns#"
   xmlns:svg="http://www.w3.org/2000/svg"
   xmlns="http://www.w3.org/2000/svg"
   xmlns:sodipodi="http://sodipodi.sourceforge.net/DTD/sodipodi-0.dtd"
   xmlns:inkscape="http://www.inkscape.org/namespaces/inkscape"
   viewBox="0 0 298.83 341.29"
   version="1.1"
   id="svg128"
   sodipodi:docname="logo-east-accord-grey.svg"
   inkscape:version="0.92.3 (2405546, 2018-03-11)">
  <metadata
     id="metadata132">
    <rdf:RDF>
      <cc:Work
         rdf:about="">
        <dc:format>image/svg+xml</dc:format>
        <dc:type
           rdf:resource="http://purl.org/dc/dcmitype/StillImage" />
        <dc:title>east accord logo</dc:title>
      </cc:Work>
    </rdf:RDF>
  </metadata>
  <sodipodi:namedview
     pagecolor="#ffffff"
     bordercolor="#666666"
     borderopacity="1"
     objecttolerance="10"
     gridtolerance="10"
     guidetolerance="10"
     inkscape:pageopacity="0"
     inkscape:pageshadow="2"
     inkscape:window-width="2296"
     inkscape:window-height="908"
     id="namedview130"
     showgrid="false"
     inkscape:zoom="1.9558404"
     inkscape:cx="-18.54466"
     inkscape:cy="109.95692"
     inkscape:window-x="0"
     inkscape:window-y="0"
     inkscape:window-maximized="0"
     inkscape:current-layer="svg128" />
  <defs
     id="defs4">
    <style
       id="style2">.cls-1{fill:#0072bc;}.cls-2{fill:#fff;}</style>
  </defs>
  <title
     id="title6">east accord logo</title>
  <path
     style="fill:#999999;fill-opacity:1"
     d="M 149.41016 0 A 128.19 128.19 0 0 0 21.220703 128.18945 A 128.19 128.19 0 0 0 149.41016 256.38086 A 128.19 128.19 0 0 0 277.59961 128.18945 A 128.19 128.19 0 0 0 149.41016 0 z M 222.82031 32.779297 C 222.82031 32.779297 252.68039 50.779063 247.40039 90.289062 L 223.68945 103.01953 C 223.68945 103.01953 218.91016 102.13969 214.91016 96.429688 L 208.32031 98.189453 C 208.46426 98.835573 208.45211 99.404902 208.34961 99.916016 L 210.07031 101.11914 A 10.39 10.39 0 0 1 214.38086 107.86914 L 214.44922 107.88086 A 10.46 10.46 0 0 1 205.9707 120.00977 A 10.58 10.58 0 0 1 204.11914 120.16992 A 10.33 10.33 0 0 1 202.17969 119.96094 A 10.38 10.38 0 0 1 193.58008 130.53906 A 10.58 10.58 0 0 1 191.73047 130.69922 A 10.33 10.33 0 0 1 188.91992 130.28906 A 10.37 10.37 0 0 1 175 140.83008 A 10.39 10.39 0 0 1 166.40039 151.32031 A 10.58 10.58 0 0 1 164.55078 151.48047 A 10.39 10.39 0 0 1 158.55078 149.58984 L 151.67969 144.89062 A 2.6051679 2.6051679 0 1 1 154.67969 140.63086 L 161.55078 145.33008 A 5.26 5.26 0 1 0 167.55078 136.69922 L 155.55078 128.31055 A 2.56 2.56 0 0 1 154.68945 125.19922 A 2.6 2.6 0 0 1 158.68945 123.59961 L 175.56055 135.31055 A 5.26 5.26 0 0 0 181.56055 126.67969 L 162.00977 113.00977 A 2.57 2.57 0 0 1 161.2207 109.7207 A 2.59 2.59 0 0 1 165.2207 108.10938 L 188.71094 124.5293 A 5.26 5.26 0 1 0 194.71094 115.90039 L 168.36914 97.490234 A 2.6 2.6 0 0 1 167.73047 93.869141 A 2.61 2.61 0 0 1 171.34961 93.230469 L 201.07031 114.00977 A 5.26 5.26 0 1 0 207.07031 105.38086 L 197.00195 98.341797 L 150.81055 67.460938 L 132.81055 67.460938 L 124.4707 73.609375 C 124.4707 73.609375 117.77961 80.839686 107.34961 74.929688 C 98.619606 69.959686 124.61914 49.759766 124.61914 49.759766 L 159.16016 46.390625 L 188.98047 57.849609 C 188.98047 57.849609 198.15039 57.849609 202.15039 53.849609 L 202.23047 53.089844 C 209.48047 60.089844 219.67969 73.809686 216.67969 94.179688 A 3.5 3.5 0 0 0 219.67969 98.179688 A 3.71 3.71 0 0 0 220.18945 98.179688 A 3.5 3.5 0 0 0 223.65039 95.179688 C 227.49039 68.649687 211.85977 51.840547 203.75977 45.060547 L 222.82031 32.779297 z M 76 33.880859 L 93.640625 45.160156 C 85.870625 51.550156 69.300625 68.780156 73.640625 96.160156 A 3.5 3.5 0 0 0 77.089844 99.160156 A 3.55 3.55 0 0 0 77.640625 99.160156 A 3.5 3.5 0 0 0 80.550781 95.160156 C 76.300781 68.330156 94.59 53.000234 99.75 49.240234 L 102.5 51.009766 L 113.5 53.419922 L 106.69922 61.320312 L 98.140625 58.900391 C 98.140625 58.900391 83.430469 74.490625 86.730469 91.390625 L 104.92969 103.36914 L 100.32031 109.36914 L 83.199219 98.369141 C 83.199219 98.369141 83.419219 106.48953 76.199219 106.26953 C 68.979219 106.04953 51.199219 92.880859 51.199219 92.880859 C 51.199219 92.880859 51 53.640859 76 33.880859 z M 109.85547 105.77148 A 5.8132607 5.8132607 0 0 1 114.93945 114.80078 L 111.93945 119.2793 A 5.83 5.83 0 0 1 103.88086 120.90039 A 5.82 5.82 0 0 1 102.25977 112.83984 L 105.25977 108.35938 A 5.8132607 5.8132607 0 0 1 109.85547 105.77148 z M 123.23438 110.82227 A 5.8132607 5.8132607 0 0 1 128.32031 119.84961 L 122.69922 128.28906 A 5.81 5.81 0 0 1 114.64062 129.91016 L 114.61914 129.91016 A 5.82 5.82 0 0 1 113 121.84961 L 118.64062 113.41016 A 5.8132607 5.8132607 0 0 1 123.23438 110.82227 z M 138.4043 114.21094 A 5.8132607 5.8132607 0 0 1 143.49023 123.24023 L 134.84961 136.24023 A 5.83 5.83 0 0 1 126.78906 137.85938 A 5.82 5.82 0 0 1 125.16992 129.80078 L 133.81055 116.80078 A 5.8132607 5.8132607 0 0 1 138.4043 114.21094 z M 145.3457 129.5918 A 5.8132607 5.8132607 0 0 1 150.42969 138.61914 L 147.42969 143.09961 A 5.82 5.82 0 0 1 139.36914 144.7207 A 5.82 5.82 0 0 1 137.75 136.66016 L 140.75 132.17969 A 5.8132607 5.8132607 0 0 1 145.3457 129.5918 z M 162.99023 158.16016 C 167.07023 158.16016 170.14984 159.16055 172.58984 161.56055 L 168.18945 165.96094 C 166.38945 164.16094 164.02906 164.2793 162.78906 164.2793 C 160.34906 164.2793 159.34961 165.67992 159.34961 166.91992 A 1.87 1.87 0 0 0 159.91016 168.24023 A 3.2 3.2 0 0 0 161.91016 169.08008 L 165.34961 169.56055 A 9.58 9.58 0 0 1 170.94922 171.91992 C 172.46922 173.39992 173.07031 175.52016 173.07031 178.16016 C 173.07031 184.00016 168.07031 187.11914 162.07031 187.11914 C 157.71031 187.11914 154.14953 186.31936 151.26953 183.35938 L 155.75 178.88086 C 157.23 180.36086 159.82937 180.88086 162.10938 180.88086 C 164.86937 180.88086 166.18945 179.96031 166.18945 178.32031 A 2.38 2.38 0 0 0 165.63086 176.64062 A 3.18 3.18 0 0 0 163.75 175.88086 L 160.31055 175.40039 A 9.63 9.63 0 0 1 154.58984 172.88086 A 7.88 7.88 0 0 1 152.58984 167.16016 C 152.58984 161.96016 156.51023 158.16016 162.99023 158.16016 z M 104.31055 158.40039 L 123.66992 158.40039 L 123.66992 164.64062 L 111.31055 164.64062 L 111.31055 169.40039 L 121.86914 169.40039 L 121.86914 175.64062 L 111.31055 175.64062 L 111.31055 180.64062 L 123.66992 180.64062 L 123.66992 186.88086 L 104.31055 186.88086 L 104.31055 158.40039 z M 135.71094 158.40039 L 141.10938 158.40039 L 151.4707 186.88086 L 144.15039 186.88086 L 142.83008 182.64062 L 134.07031 182.64062 L 132.66992 186.88086 L 125.34961 186.88086 L 135.71094 158.40039 z M 175.58984 158.40039 L 196.58984 158.40039 L 196.58984 164.64062 L 189.58984 164.64062 L 189.58984 186.88086 L 182.58984 186.88086 L 182.58984 164.64062 L 175.58984 164.64062 L 175.58984 158.40039 z M 138.58984 169.19922 L 136 176.80078 L 141 176.80078 L 138.58984 169.19922 z M 112.29688 194.1543 A 10.6 10.6 0 0 1 112.29883 194.1543 A 10.6 10.6 0 0 1 112.60938 194.16016 C 118.00937 194.16016 122.37016 197.15945 123.41016 203.43945 L 116.28906 203.43945 C 115.84906 201.83945 114.97039 200.43945 112.65039 200.43945 A 3.4 3.4 0 0 0 109.89062 201.64062 C 109.25064 202.48064 108.81055 203.48063 108.81055 208.64062 C 108.81055 213.80063 109.25063 214.84063 109.89062 215.64062 A 3.4 3.4 0 0 0 112.65039 216.83984 C 114.97039 216.83984 115.84906 215.39984 116.28906 213.83984 L 123.41016 213.83984 C 122.37016 220.11984 117.99937 223.11914 112.60938 223.11914 A 10.6 10.6 0 0 1 104.68945 219.91992 C 101.68945 216.91992 101.81055 212.92063 101.81055 208.64062 C 101.81055 204.36062 101.68945 200.35938 104.68945 197.35938 A 10.6 10.6 0 0 1 112.29688 194.1543 z M 136.25781 194.1543 A 10.6 10.6 0 0 1 136.57031 194.16016 C 141.97031 194.16016 146.32914 197.15945 147.36914 203.43945 L 140.25 203.43945 C 139.81 201.83945 138.92937 200.43945 136.60938 200.43945 A 3.4 3.4 0 0 0 133.84961 201.64062 C 133.20961 202.48064 132.76953 203.48063 132.76953 208.64062 C 132.76953 213.80063 133.20961 214.84063 133.84961 215.64062 A 3.4 3.4 0 0 0 136.60938 216.83984 C 138.92937 216.83984 139.81 215.39984 140.25 213.83984 L 147.36914 213.83984 C 146.32914 220.11984 142.00031 223.11914 136.57031 223.11914 A 10.6 10.6 0 0 1 128.65039 219.91992 C 125.65039 216.91992 125.76953 212.92063 125.76953 208.64062 C 125.76953 204.36062 125.65039 200.35938 128.65039 197.35938 A 10.6 10.6 0 0 1 136.25781 194.1543 z M 160.97852 194.16797 A 11.5 11.5 0 0 1 168.5293 197.35938 C 171.5293 200.35938 171.41016 204.36062 171.41016 208.64062 C 171.41016 212.92063 171.5293 216.91992 168.5293 219.91992 A 11.5 11.5 0 0 1 152.60938 219.91992 C 149.60938 216.91992 149.73047 212.92063 149.73047 208.64062 C 149.73047 204.36062 149.60938 200.35937 152.60938 197.35938 A 11.5 11.5 0 0 1 160.97852 194.16797 z M 84.890625 194.40039 L 90.289062 194.40039 L 100.65039 222.88086 L 93.330078 222.88086 L 92 218.64062 L 83.25 218.64062 L 81.849609 222.88086 L 74.539062 222.88086 L 84.890625 194.40039 z M 175.89062 194.40039 L 187.16992 194.40039 C 193.48992 194.40039 196.89063 198.88055 196.89062 203.56055 A 8.19 8.19 0 0 1 192.25 211 L 198.41016 222.88086 L 190.25 222.88086 L 185.25 212.2793 L 182.89062 212.2793 L 182.89062 222.88086 L 175.89062 222.88086 L 175.89062 194.40039 z M 201.5293 194.40039 L 212.08984 194.40039 A 10.6 10.6 0 0 1 219.76953 197.19922 C 223.08953 200.51922 222.76953 204.20063 222.76953 208.64062 C 222.76953 213.08064 223.08953 216.76008 219.76953 220.08008 A 10.6 10.6 0 0 1 212.08984 222.88086 L 201.5293 222.88086 L 201.5293 194.40039 z M 160.44141 200.40234 A 3.78 3.78 0 0 0 157.76953 201.64062 C 157.12953 202.48063 156.76953 203.44063 156.76953 208.64062 C 156.76953 213.84062 157.16953 214.76063 157.76953 215.64062 A 3.7 3.7 0 0 0 163.36914 215.64062 C 164.00914 214.80063 164.36914 213.88062 164.36914 208.64062 C 164.36914 203.40063 163.99914 202.48063 163.36914 201.64062 A 3.78 3.78 0 0 0 160.69922 200.40234 A 3.78 3.78 0 0 0 160.44141 200.40234 z M 211.91602 200.625 A 3.63 3.63 0 0 0 211.64062 200.64062 L 208.56055 200.64062 L 208.56055 216.64062 L 211.64062 216.64062 A 3.63 3.63 0 0 0 215 215 C 215.56 214.2 215.75977 213.43961 215.75977 208.59961 C 215.75977 203.75961 215.53 203.00023 215 202.24023 A 3.63 3.63 0 0 0 211.91602 200.625 z M 182.81055 200.67969 L 182.81055 206.43945 L 186.81055 206.43945 A 2.88 2.88 0 1 0 186.81055 200.67969 L 182.81055 200.67969 z M 87.769531 205.19922 L 85.210938 212.80078 L 90.210938 212.80078 L 87.769531 205.19922 z M 0 272 L 0 275.59961 L 298.83008 275.59961 L 298.83008 272 L 0 272 z M 200.47266 282.32617 A 7.93 7.93 0 0 0 199.67969 282.33984 C 195.66969 282.33984 193.23047 284.66094 193.23047 287.96094 A 4.89 4.89 0 0 0 194.56055 291.59961 A 6.28 6.28 0 0 0 198.15039 293.13086 L 200.39062 293.43945 A 2.76 2.76 0 0 1 202.0293 294.08984 A 2.06 2.06 0 0 1 202.59961 295.65039 C 202.59961 297.13039 201.45031 297.93945 199.32031 297.93945 A 6.06 6.06 0 0 1 194.84961 296.38086 L 192.50977 298.7207 C 194.32977 300.5607 196.45953 301.16016 199.26953 301.16016 C 203.13953 301.16016 206.13039 299.13055 206.15039 295.56055 A 5.18 5.18 0 0 0 204.7207 291.63086 A 6.13 6.13 0 0 0 201.17969 290.19922 L 199 289.89062 A 3.18 3.18 0 0 1 197.2793 289.16016 A 1.79 1.79 0 0 1 196.73047 287.83008 C 196.73047 286.56008 197.66984 285.49023 199.58984 285.49023 A 5.15 5.15 0 0 1 203.39062 286.75977 L 205.67969 284.5 A 7.93 7.93 0 0 0 200.47266 282.32617 z M 11.894531 282.35742 A 6.79 6.79 0 0 0 7 284.35938 A 5.26 5.26 0 0 0 5.4902344 287.17969 A 34.1 34.1 0 0 0 5.4902344 296.38086 A 5.35 5.35 0 0 0 7 299.16016 A 6.78 6.78 0 0 0 12 301.16016 A 6.54 6.54 0 0 0 18.789062 295.38086 L 15.119141 295.38086 A 3.05 3.05 0 0 1 12 298.00977 A 2.86 2.86 0 0 1 9.6894531 297.00977 C 8.9394531 296.19977 8.7792969 295.3693 8.7792969 291.7793 C 8.7792969 288.1893 8.9394531 287.36078 9.6894531 286.55078 A 2.86 2.86 0 0 1 12 285.55078 A 3.05 3.05 0 0 1 15.109375 288.21094 L 18.810547 288.21094 A 6.52 6.52 0 0 0 12 282.35938 A 6.79 6.79 0 0 0 11.894531 282.35742 z M 96.230469 282.38086 L 96.230469 285.14062 L 99.689453 285.14062 L 99.689453 282.38086 L 96.230469 282.38086 z M 143.05469 282.39844 A 6.79 6.79 0 0 0 138.16016 284.40039 A 5.26 5.26 0 0 0 136.65039 287.17969 A 34.1 34.1 0 0 0 136.65039 296.38086 A 5.35 5.35 0 0 0 138.16016 299.16016 A 6.78 6.78 0 0 0 143.16016 301.16016 A 6.54 6.54 0 0 0 150 295.44922 L 146.30078 295.44922 A 3.05 3.05 0 0 1 143.17969 298.08008 A 2.86 2.86 0 0 1 140.86914 297.08008 C 140.11914 296.27008 139.96094 295.43961 139.96094 291.84961 C 139.96094 288.25961 140.11914 287.42914 140.86914 286.61914 A 2.86 2.86 0 0 1 143.17969 285.61914 A 3.05 3.05 0 0 1 146.30078 288.25 L 149.9707 288.25 A 6.52 6.52 0 0 0 143.16016 282.40039 A 6.79 6.79 0 0 0 143.05469 282.39844 z M 88 283.84961 L 88 287.84961 L 86.529297 287.84961 L 86.529297 290.41992 L 88 290.41992 L 88 297.13086 A 3.67 3.67 0 0 0 91.890625 301 L 93.730469 301 L 93.730469 298.14062 L 92.509766 298.14062 C 91.699766 298.14062 91.339844 297.69992 91.339844 296.91992 L 91.339844 290.41992 L 93.769531 290.41992 L 93.769531 287.84961 L 91.380859 287.84961 L 91.380859 283.84961 L 88 283.84961 z M 233.64062 283.84961 L 233.64062 287.84961 L 232.21094 287.84961 L 232.21094 290.41992 L 233.64062 290.41992 L 233.64062 297.13086 A 3.67 3.67 0 0 0 237.57031 301 L 239.39062 301 L 239.39062 298.14062 L 238.16992 298.14062 C 237.35992 298.14062 237 297.69992 237 296.91992 L 237 290.41992 L 239.39062 290.41992 L 239.39062 287.84961 L 237 287.84961 L 237 283.84961 L 233.64062 283.84961 z M 121.78906 287.23633 A 4 4 0 0 0 121.39062 287.24023 A 4.57 4.57 0 0 0 118.14062 288.43945 C 116.86063 289.71945 116.75977 291.42078 116.75977 293.80078 C 116.75977 296.18078 116.87063 297.90969 118.14062 299.17969 A 4.51 4.51 0 0 0 121.35938 300.38086 A 4 4 0 0 0 124.58008 299.0293 L 124.58008 300.41016 A 2.56 2.56 0 0 1 121.84961 303.2207 A 3.45 3.45 0 0 1 119.19922 302.2207 L 117.08984 304.34961 A 6.34 6.34 0 0 0 122 306.11914 C 125.61 306.11914 127.9307 303.75922 127.9707 300.44922 L 127.9707 287.40039 L 124.68945 287.40039 L 124.68945 288.66992 A 4 4 0 0 0 121.78906 287.23633 z M 282.41992 287.24023 C 279.65992 287.24023 277.18945 288.75055 277.18945 291.56055 C 277.18945 294.06055 278.74945 295.12937 281.18945 295.35938 L 283.32031 295.57031 C 284.39031 295.68031 284.75 296.14031 284.75 296.82031 C 284.75 297.83031 283.52938 298.2207 282.35938 298.2207 A 4.92 4.92 0 0 1 278.75 296.94922 L 276.53906 299.16016 C 278.24906 300.93016 280.18055 301.16016 282.31055 301.16016 C 285.51055 301.16016 288.05953 299.71953 288.01953 296.76953 C 288.01953 294.45953 286.69953 293.02953 284.01953 292.76953 L 281.89062 292.56055 C 280.70063 292.46055 280.49023 291.88063 280.49023 291.39062 C 280.49023 290.71062 281.06016 290.08984 282.41016 290.08984 A 4.71 4.71 0 0 1 285.56055 291 L 287.58984 288.83008 C 286.28984 287.60008 284.52992 287.24023 282.41992 287.24023 z M 67.179688 287.26953 C 63.669688 287.26953 61.279297 289.76945 61.279297 294.18945 C 61.279297 299.66945 64.350781 301.13086 67.550781 301.13086 A 6.45 6.45 0 0 0 72.699219 299 L 70.650391 297 A 3.75 3.75 0 0 1 67.619141 298.2793 A 2.8 2.8 0 0 1 64.619141 295.2793 L 73.080078 295.25 L 73.080078 293.74023 C 73.080078 290.03023 70.949687 287.26953 67.179688 287.26953 z M 179.91992 287.2793 C 176.40992 287.2793 174.01953 289.77922 174.01953 294.19922 C 174.01953 299.67922 177.08906 301.14062 180.28906 301.14062 A 6.45 6.45 0 0 0 185.43945 299.00977 L 183.39062 297.00977 A 3.75 3.75 0 0 1 180.32031 298.2793 A 2.8 2.8 0 0 1 177.32031 295.2793 L 185.82031 295.25977 L 185.82031 293.75 C 185.82031 290.04 183.68992 287.2793 179.91992 287.2793 z M 247.14062 287.2793 C 243.63062 287.2793 241.24023 289.77922 241.24023 294.19922 C 241.24023 299.67922 244.30977 301.14062 247.50977 301.14062 A 6.45 6.45 0 0 0 252.66016 299.00977 L 250.60938 297.00977 A 3.75 3.75 0 0 1 247.53906 298.2793 A 2.8 2.8 0 0 1 244.53906 295.2793 L 253.03906 295.25977 L 253.03906 293.75 C 253.03906 290.04 250.91063 287.2793 247.14062 287.2793 z M 171.26953 287.28711 A 4.09 4.09 0 0 0 170.85938 287.28906 A 4.58 4.58 0 0 0 167.44922 288.75 L 167.44922 287.44922 L 164.15039 287.44922 L 164.15039 301 L 167.5293 301 L 167.5293 292.83008 A 2.26 2.26 0 0 1 171.5293 291.14062 L 174.06055 288.56055 A 4.09 4.09 0 0 0 171.26953 287.28711 z M 225.66992 287.28906 C 222.90992 287.28906 220.43945 288.79937 220.43945 291.60938 C 220.43945 294.10937 221.99945 295.18016 224.43945 295.41016 L 226.57031 295.61914 C 227.64031 295.72914 228 296.18914 228 296.86914 C 228 297.87914 226.77937 298.26953 225.60938 298.26953 A 4.92 4.92 0 0 1 222 297 L 219.75977 299.16016 C 221.46977 300.93016 223.3993 301.16016 225.5293 301.16016 C 228.7293 301.16016 231.27023 299.71953 231.24023 296.76953 C 231.24023 294.45953 229.92023 293.02953 227.24023 292.76953 L 225.10938 292.56055 C 223.91937 292.46055 223.71094 291.88063 223.71094 291.39062 C 223.71094 290.71063 224.28086 290.08984 225.63086 290.08984 A 4.71 4.71 0 0 1 228.7793 291 L 230.83984 288.88086 C 229.53984 287.65086 227.77992 287.28906 225.66992 287.28906 z M 24.589844 287.29492 A 5.55 5.55 0 0 0 20.599609 288.96094 C 19.379609 290.21094 19.070312 291.74094 19.070312 294.21094 C 19.070312 296.68094 19.379609 298.22023 20.599609 299.49023 A 5.55 5.55 0 0 0 24.789062 301.15039 A 5.62 5.62 0 0 0 29 299.49023 C 30.19 298.22023 30.529297 296.69 30.529297 294.25 C 30.529297 291.81 30.22 290.27 29 289 A 5.61 5.61 0 0 0 24.789062 287.30078 A 5.55 5.55 0 0 0 24.589844 287.29492 z M 39.841797 287.29883 A 4.64 4.64 0 0 0 36.509766 288.69922 L 36.509766 287.44922 L 33.210938 287.44922 L 33.210938 301 L 36.589844 301 L 36.589844 292.81055 A 2.26 2.26 0 1 1 41.089844 292.81055 L 41.089844 301 L 44.470703 301 L 44.470703 292.34961 A 5 5 0 0 0 43.089844 288.5 A 4.4 4.4 0 0 0 39.890625 287.30078 A 4.64 4.64 0 0 0 39.841797 287.29883 z M 54.220703 287.29883 A 4.64 4.64 0 0 0 50.890625 288.69922 L 50.890625 287.44922 L 47.589844 287.44922 L 47.589844 301 L 50.960938 301 L 50.960938 292.81055 A 2.26 2.26 0 1 1 55.460938 292.81055 L 55.460938 301 L 58.849609 301 L 58.849609 292.34961 A 5 5 0 0 0 57.470703 288.5 A 4.4 4.4 0 0 0 54.269531 287.30078 A 4.64 4.64 0 0 0 54.220703 287.29883 z M 109.54102 287.29883 A 4.64 4.64 0 0 0 106.21094 288.69922 L 106.21094 287.44922 L 102.91016 287.44922 L 102.91016 301 L 106.28906 301 L 106.28906 292.81055 A 2.26 2.26 0 1 1 110.78906 292.81055 L 110.78906 301 L 114.16992 301 L 114.16992 292.34961 A 5 5 0 0 0 112.78906 288.5 A 4.4 4.4 0 0 0 109.58984 287.30078 A 4.64 4.64 0 0 0 109.54102 287.29883 z M 81.070312 287.30078 C 78.360312 287.30078 75.009766 288.7407 75.009766 294.2207 C 75.009766 299.7007 78.370312 301.16016 81.070312 301.16016 A 5.79 5.79 0 0 0 85.550781 299.25977 L 83.259766 297 A 2.74 2.74 0 0 1 81.070312 298.09961 A 2.34 2.34 0 0 1 79.150391 297.2207 A 4.67 4.67 0 0 1 78.400391 294.2207 A 4.59 4.59 0 0 1 79.150391 291.2207 A 2.35 2.35 0 0 1 81.070312 290.33984 A 2.73 2.73 0 0 1 83.25 291.41016 L 85.539062 289.11914 A 5.77 5.77 0 0 0 81.070312 287.30078 z M 262.28906 287.30078 A 4.74 4.74 0 0 0 258.91016 288.69922 L 258.91016 287.44922 L 255.60938 287.44922 L 255.60938 301 L 258.99023 301 L 258.99023 292.81055 A 2.26 2.26 0 1 1 263.49023 292.81055 L 263.49023 301 L 266.86914 301 L 266.86914 292.73047 A 2.26 2.26 0 1 1 271.36914 292.81055 L 271.36914 301 L 274.75 301 L 274.75 292.34961 A 5.11 5.11 0 0 0 273.26953 288.5 A 4.72 4.72 0 0 0 269.93945 287.30078 A 5.16 5.16 0 0 0 265.88086 289.01953 A 4.2 4.2 0 0 0 262.28906 287.30078 z M 155.2793 287.33008 C 153.0193 287.33008 151.72063 287.73922 150.39062 289.19922 L 152.55078 291.31055 A 2.91 2.91 0 0 1 155.15039 290.18945 C 156.94039 290.18945 157.66992 290.84031 157.66992 292.32031 L 157.66992 293 L 154.4707 293 C 151.3207 293 149.83984 294.76969 149.83984 296.92969 A 4.34 4.34 0 0 0 150.96094 299.92969 A 4.62 4.62 0 0 0 154.41992 301.13086 A 4.12 4.12 0 0 0 157.75 299.83008 L 157.75 301 L 161.05078 301 L 161.05078 292.10938 C 161.05078 288.93938 159.0793 287.33008 155.2793 287.33008 z M 96.279297 287.44922 L 96.279297 301 L 99.660156 301 L 99.660156 287.44922 L 96.279297 287.44922 z M 207 287.44922 L 211.57031 300.03906 L 211 301.69922 A 1.46 1.46 0 0 1 209.33984 302.91992 L 208.56055 302.91992 L 208.56055 305.91992 L 209.89062 305.91992 A 3.91 3.91 0 0 0 212.80078 304.91992 A 4.81 4.81 0 0 0 213.80078 303.17969 L 219.63086 287.44922 L 216.07031 287.44922 L 213.36914 295.82031 L 210.56055 287.44922 L 207 287.44922 z M 67.232422 290.10547 A 2.52 2.52 0 0 1 69.460938 291.50977 L 69.449219 291.50977 A 3.73 3.73 0 0 1 69.779297 292.9707 L 64.630859 292.9707 A 3.73 3.73 0 0 1 64.939453 291.50977 A 2.52 2.52 0 0 1 67.232422 290.10547 z M 179.93164 290.10547 A 2.52 2.52 0 0 1 182.16016 291.50977 A 3.73 3.73 0 0 1 182.48047 292.9707 L 177.33008 292.9707 A 3.73 3.73 0 0 1 177.64062 291.50977 A 2.52 2.52 0 0 1 179.93164 290.10547 z M 247.15234 290.10547 A 2.52 2.52 0 0 1 249.38086 291.50977 L 249.36914 291.50977 A 3.74 3.74 0 0 1 249.69922 292.9707 L 244.55078 292.9707 A 3.74 3.74 0 0 1 244.85938 291.50977 A 2.52 2.52 0 0 1 247.15234 290.10547 z M 24.816406 290.33789 A 2.14 2.14 0 0 1 26.369141 290.93945 L 26.339844 290.93945 C 26.999844 291.63945 27.150391 292.8207 27.150391 294.2207 C 27.150391 295.6207 27.069141 296.81953 26.369141 297.51953 A 2.14 2.14 0 0 1 24.779297 298.11914 A 2.07 2.07 0 0 1 23.220703 297.51953 C 22.520703 296.81953 22.439453 295.6307 22.439453 294.2207 C 22.439453 292.8107 22.520703 291.63945 23.220703 290.93945 A 2.08 2.08 0 0 1 24.779297 290.33984 A 2.14 2.14 0 0 1 24.816406 290.33789 z M 122.32617 290.3418 C 124.31033 290.35171 124.58008 292.05485 124.58008 293.84961 C 124.58008 295.64961 124.33984 297.39062 122.33984 297.39062 C 120.33984 297.39063 120.13086 295.63961 120.13086 293.84961 C 120.13086 292.06419 120.34042 290.35057 122.32617 290.3418 z M 155 295.2793 L 157.66992 295.2793 L 157.7207 296 A 2.23 2.23 0 0 1 157.23047 297.7207 A 2.68 2.68 0 0 1 155.09961 298.36914 C 153.71961 298.36914 153.09961 297.77055 153.09961 296.81055 C 153.09961 295.85055 153.78 295.2793 155 295.2793 z M 290.24023 297.28906 L 290.24023 305.28906 L 294 302.41016 L 294 297.28906 L 290.24023 297.28906 z M 44.242188 309.31641 A 7.93 7.93 0 0 0 43.449219 309.33008 C 39.439219 309.33008 37 311.64922 37 314.94922 A 4.89 4.89 0 0 0 38.289062 318.59961 A 6.28 6.28 0 0 0 41.880859 320.13086 L 44.119141 320.43945 A 2.76 2.76 0 0 1 45.759766 321.08984 A 2.06 2.06 0 0 1 46.330078 322.65039 C 46.330078 324.13039 45.180781 324.93945 43.050781 324.93945 A 6.06 6.06 0 0 1 38.580078 323.38086 L 36.240234 325.7207 C 38.060234 327.5607 40.19 328.16016 43 328.16016 C 46.9 328.16016 49.889922 326.13078 49.919922 322.55078 A 5.18 5.18 0 0 0 48.490234 318.61914 A 6.13 6.13 0 0 0 44.949219 317.18945 L 42.769531 316.88086 A 3.18 3.18 0 0 1 41.050781 316.15039 A 1.79 1.79 0 0 1 40.5 314.82031 C 40.5 313.55031 41.439375 312.48047 43.359375 312.48047 A 5.15 5.15 0 0 1 47.160156 313.75 L 49.449219 311.49023 A 7.93 7.93 0 0 0 44.242188 309.31641 z M 89.800781 309.38086 L 89.800781 312.14062 L 93.259766 312.14062 L 93.259766 309.38086 L 89.800781 309.38086 z M 187.30078 309.49023 L 187.30078 328 L 190.91016 328 L 190.91016 321 L 194.4707 321 C 198.2907 321 200.58984 318.39977 200.58984 315.25977 C 200.58984 312.11977 198.30047 309.49023 194.48047 309.49023 L 187.30078 309.49023 z M 243.76953 309.49023 L 243.76953 324.13086 A 3.68 3.68 0 0 0 247.76953 328 L 249.65039 328 L 249.65039 325.14062 L 248.34961 325.14062 C 247.48961 325.14062 247.15039 324.72992 247.15039 323.91992 L 247.15039 309.49023 L 243.76953 309.49023 z M 174.85938 309.5 L 174.85938 315.66016 A 4.06 4.06 0 0 0 171.56055 314.31055 A 4.72 4.72 0 0 0 168.25977 315.5293 C 166.87977 316.8793 166.88086 319.1907 166.88086 321.2207 C 166.88086 323.2507 166.90977 325.58945 168.25977 326.93945 A 4.79 4.79 0 0 0 171.58984 328.16016 A 4.07 4.07 0 0 0 174.93945 326.73047 L 174.93945 328 L 178.24023 328 L 178.24023 309.5 L 174.85938 309.5 z M 194.46094 312.67578 A 2.54 2.54 0 1 1 194.28906 317.75 L 190.91016 317.75 L 190.91016 312.67969 L 194.28906 312.67969 A 2.54 2.54 0 0 1 194.46094 312.67578 z M 126.25 314.24023 C 123.49 314.24023 121.01953 315.75055 121.01953 318.56055 C 121.01953 321.06055 122.57953 322.12937 125.01953 322.35938 L 127.15039 322.57031 C 128.22039 322.68031 128.58008 323.14031 128.58008 323.82031 C 128.58008 324.83031 127.35945 325.2207 126.18945 325.2207 A 4.92 4.92 0 0 1 122.58008 323.94922 L 120.36914 326.16016 C 122.07914 327.93016 124.01063 328.16016 126.14062 328.16016 C 129.34062 328.16016 131.88961 326.71953 131.84961 323.76953 C 131.84961 321.45953 130.52961 320.02953 127.84961 319.76953 L 125.7207 319.56055 C 124.5307 319.46055 124.32031 318.88063 124.32031 318.39062 C 124.32031 317.71062 124.89023 317.08984 126.24023 317.08984 A 4.71 4.71 0 0 1 129.39062 318 L 131.41992 315.83008 C 130.11992 314.60008 128.36 314.24023 126.25 314.24023 z M 57.730469 314.26953 C 54.220469 314.26953 51.830078 316.76945 51.830078 321.18945 C 51.830078 326.66945 54.899609 328.13086 58.099609 328.13086 A 6.45 6.45 0 0 0 63.25 326 L 61.199219 324 A 3.75 3.75 0 0 1 58.169922 325.2793 A 2.8 2.8 0 0 1 55.169922 322.2793 L 63.630859 322.25 L 63.630859 320.74023 C 63.630859 317.03023 61.500469 314.26953 57.730469 314.26953 z M 113.2207 314.2793 C 109.7107 314.2793 107.32031 316.77922 107.32031 321.19922 C 107.32031 326.67922 110.38984 328.14062 113.58984 328.14062 A 6.45 6.45 0 0 0 118.74023 326.00977 L 116.68945 324.00977 A 3.75 3.75 0 0 1 113.61914 325.2793 A 2.8 2.8 0 0 1 110.61914 322.2793 L 119.11914 322.25977 L 119.11914 320.75 C 119.11914 317.04 116.9907 314.2793 113.2207 314.2793 z M 207.83008 314.2793 C 204.32008 314.2793 201.92969 316.77922 201.92969 321.19922 C 201.92969 326.67922 204.99922 328.14062 208.19922 328.14062 A 6.45 6.45 0 0 0 213.34961 326.00977 L 211.30078 324.00977 A 3.75 3.75 0 0 1 208.23047 325.2793 A 2.8 2.8 0 0 1 205.23047 322.2793 L 213.73047 322.25977 L 213.73047 320.75 C 213.73047 317.04 211.60008 314.2793 207.83008 314.2793 z M 256.48047 314.2793 C 252.97047 314.2793 250.58008 316.77922 250.58008 321.19922 C 250.58008 326.67922 253.64961 328.14062 256.84961 328.14062 A 6.45 6.45 0 0 0 262 326.00977 L 259.94922 324.00977 A 3.75 3.75 0 0 1 256.88086 325.2793 A 2.8 2.8 0 0 1 253.88086 322.2793 L 262.38086 322.25977 L 262.38086 320.75 C 262.38086 317.04 260.25047 314.2793 256.48047 314.2793 z M 236.47461 314.28516 A 4.12 4.12 0 0 0 233.18945 315.7207 L 233.18945 314.44922 L 229.91016 314.44922 L 229.91016 333 L 233.28906 333 L 233.28906 326.80078 A 4 4 0 0 0 236.57031 328.15039 A 4.72 4.72 0 0 0 239.86914 326.92969 C 241.21914 325.57969 241.25 323.21922 241.25 321.19922 C 241.25 319.17922 241.21914 316.85977 239.86914 315.50977 A 4.72 4.72 0 0 0 236.57031 314.28906 A 4.12 4.12 0 0 0 236.47461 314.28516 z M 73.359375 314.28711 A 4.09 4.09 0 0 0 72.949219 314.28906 A 4.58 4.58 0 0 0 69.539062 315.75 L 69.539062 314.44922 L 66.240234 314.44922 L 66.240234 328 L 69.599609 328 L 69.599609 319.83008 A 2.26 2.26 0 0 1 73.599609 318.14062 L 76.150391 315.56055 A 4.09 4.09 0 0 0 73.359375 314.28711 z M 221.25977 314.29492 A 5.55 5.55 0 0 0 217.26953 315.96094 C 216.04953 317.21094 215.74023 318.74094 215.74023 321.21094 C 215.74023 323.68094 216.04953 325.22023 217.26953 326.49023 A 5.55 5.55 0 0 0 221.46094 328.15039 A 5.62 5.62 0 0 0 225.66992 326.49023 C 226.88992 325.22023 227.19922 323.65094 227.19922 321.21094 C 227.19922 318.77094 226.88992 317.23094 225.66992 315.96094 A 5.61 5.61 0 0 0 221.46094 314.30078 A 5.55 5.55 0 0 0 221.25977 314.29492 z M 159.75195 314.29883 A 4.64 4.64 0 0 0 156.41992 315.69922 L 156.41992 314.44922 L 153.11914 314.44922 L 153.11914 328 L 156.5 328 L 156.5 319.81055 A 2.26 2.26 0 1 1 161 319.81055 L 161 328 L 164.38086 328 L 164.38086 319.34961 A 5 5 0 0 0 163 315.5 A 4.4 4.4 0 0 0 159.80078 314.30078 A 4.64 4.64 0 0 0 159.75195 314.29883 z M 101.85938 314.30078 C 99.149375 314.30078 95.800781 315.7407 95.800781 321.2207 C 95.800781 326.7007 99.159375 328.16016 101.85938 328.16016 A 5.79 5.79 0 0 0 106.28906 326.25977 L 104 324 A 2.74 2.74 0 0 1 101.82031 325.08984 A 2.34 2.34 0 0 1 99.900391 324.21094 A 4.67 4.67 0 0 1 99.150391 321.21094 A 4.59 4.59 0 0 1 99.900391 318.21094 A 2.35 2.35 0 0 1 101.82031 317.33008 A 2.73 2.73 0 0 1 104 318.40039 L 106.33008 316.11914 A 5.77 5.77 0 0 0 101.85938 314.30078 z M 144.18945 314.33008 C 141.92945 314.33008 140.63078 314.73922 139.30078 316.19922 L 141.46094 318.31055 A 2.91 2.91 0 0 1 144.06055 317.18945 C 145.85055 317.18945 146.58008 317.84031 146.58008 319.32031 L 146.58008 320 L 143.38086 320 C 140.23086 320 138.75 321.76969 138.75 323.92969 A 4.34 4.34 0 0 0 139.86914 326.92969 A 4.62 4.62 0 0 0 143.33008 328.13086 A 4.12 4.12 0 0 0 146.66016 326.83008 L 146.66016 328 L 149.96094 328 L 149.96094 319.10938 C 149.96094 315.93938 147.98945 314.33008 144.18945 314.33008 z M 75.75 314.44922 L 80.75 328 L 83.400391 328 L 88.359375 314.44922 L 84.800781 314.44922 L 82.070312 322.82031 L 79.310547 314.44922 L 75.75 314.44922 z M 89.849609 314.44922 L 89.849609 328 L 93.230469 328 L 93.230469 314.44922 L 89.849609 314.44922 z M 57.771484 317.10547 A 2.52 2.52 0 0 1 60 318.50977 A 3.73 3.73 0 0 1 60.320312 319.9707 L 55.169922 319.9707 A 3.73 3.73 0 0 1 55.480469 318.50977 A 2.52 2.52 0 0 1 57.771484 317.10547 z M 113.23242 317.10547 A 2.52 2.52 0 0 1 115.46094 318.50977 A 3.73 3.73 0 0 1 115.7793 319.9707 L 110.63086 319.9707 A 3.73 3.73 0 0 1 110.93945 318.50977 A 2.52 2.52 0 0 1 113.23242 317.10547 z M 207.8418 317.10547 A 2.52 2.52 0 0 1 210.07031 318.50977 A 3.73 3.73 0 0 1 210.39062 319.9707 L 205.24023 319.9707 A 3.73 3.73 0 0 1 205.55078 318.50977 A 2.52 2.52 0 0 1 207.8418 317.10547 z M 256.49219 317.10547 A 2.52 2.52 0 0 1 258.7207 318.50977 A 3.72 3.72 0 0 1 259 319.9707 L 253.89062 319.9707 A 3.74 3.74 0 0 1 254.19922 318.50977 A 2.52 2.52 0 0 1 256.49219 317.10547 z M 221.44531 317.33789 A 2.14 2.14 0 0 1 223 317.93945 C 223.75 318.63945 223.7793 319.8207 223.7793 321.2207 C 223.7793 322.6207 223.7 323.81953 223 324.51953 A 2.14 2.14 0 0 1 221.41016 325.11914 A 2.07 2.07 0 0 1 219.84961 324.51953 C 219.14961 323.81953 219.07031 322.6307 219.07031 321.2207 C 219.07031 319.8107 219.14961 318.63945 219.84961 317.93945 A 2.08 2.08 0 0 1 221.41016 317.33984 A 2.14 2.14 0 0 1 221.44531 317.33789 z M 172.55078 317.33984 C 174.58078 317.33984 174.85938 319.00094 174.85938 321.21094 C 174.85938 323.42094 174.58078 325.10938 172.55078 325.10938 C 170.52078 325.10937 170.25977 323.42094 170.25977 321.21094 C 170.25977 319.00094 170.55078 317.33984 172.55078 317.33984 z M 235.58008 317.33984 C 237.60008 317.33984 237.86914 319.00094 237.86914 321.21094 C 237.86914 323.42094 237.61008 325.10938 235.58008 325.10938 C 233.55008 325.10938 233.28906 323.42094 233.28906 321.21094 C 233.28906 319.00094 233.58008 317.33984 235.58008 317.33984 z M 143.90039 322.2793 L 146.58008 322.2793 L 146.61914 323 A 2.23 2.23 0 0 1 146.13086 324.7207 A 2.68 2.68 0 0 1 144 325.36914 C 142.62 325.36914 142 324.77055 142 323.81055 C 142 322.85055 142.68039 322.2793 143.90039 322.2793 z M 0 337.68945 L 0 341.28906 L 298.83008 341.28906 L 298.83008 337.68945 L 0 337.68945 z "
     id="circle8" />
</svg>
