<?xml version="1.0" encoding="UTF-8" standalone="no"?>
<!-- Generator: Adobe Illustrator 21.1.0, SVG Export Plug-In . SVG Version: 6.00 Build 0)  -->

<svg
   xmlns:dc="http://purl.org/dc/elements/1.1/"
   xmlns:cc="http://creativecommons.org/ns#"
   xmlns:rdf="http://www.w3.org/1999/02/22-rdf-syntax-ns#"
   xmlns:svg="http://www.w3.org/2000/svg"
   xmlns="http://www.w3.org/2000/svg"
   xmlns:sodipodi="http://sodipodi.sourceforge.net/DTD/sodipodi-0.dtd"
   xmlns:inkscape="http://www.inkscape.org/namespaces/inkscape"
   version="1.1"
   id="Layer_1"
   x="0px"
   y="0px"
   viewBox="0 0 500 500"
   style="enable-background:new 0 0 500 500;"
   xml:space="preserve"
   sodipodi:docname="midlands-accord-logo-grey.svg"
   inkscape:version="0.92.3 (2405546, 2018-03-11)"><metadata
   id="metadata297"><rdf:RDF><cc:Work
       rdf:about=""><dc:format>image/svg+xml</dc:format><dc:type
         rdf:resource="http://purl.org/dc/dcmitype/StillImage" /><dc:title></dc:title></cc:Work></rdf:RDF></metadata><defs
   id="defs295">
	
	
	
	
	
	
	
	
	
	
	
	
	
	
	
	
	
	
	
	
	
	
	
	
	
	
	
	
	
	
	
	
	
	
	
	
	
	
	
	
	
	
	
	
	
	
	
	
	
	
	
	
	
	
	
	
	
	
	
	
	
	
	
	
	
	
	
	
	
	
	
	
	
	
	

		
		
		
		
		
		
		
		
	
		
		
		
		
		
		
		
		
		
		
		
		
		
		
		
		
		
		
		
		
		
		
		
		
		
		
		
		
		
		
		
		
		
		
		
		
		
		
		
	
		
	
		
	
		
	
		
		
		
		
		
		
	</defs><sodipodi:namedview
   pagecolor="#ffffff"
   bordercolor="#666666"
   borderopacity="1"
   objecttolerance="10"
   gridtolerance="10"
   guidetolerance="10"
   inkscape:pageopacity="0"
   inkscape:pageshadow="2"
   inkscape:window-width="1525"
   inkscape:window-height="928"
   id="namedview293"
   showgrid="false"
   inkscape:zoom="0.472"
   inkscape:cx="250"
   inkscape:cy="250"
   inkscape:window-x="0"
   inkscape:window-y="0"
   inkscape:window-maximized="0"
   inkscape:current-layer="Layer_1" />
<style
   type="text/css"
   id="style2">
	.st0{fill:#94C948;}
	.st1{fill:none;stroke:#94C948;stroke-miterlimit:10;}
	.st2{fill:#B20000;}
	.st3{fill:#282780;}
	.st4{fill:#B26666;}
</style>
<path
   class="st0"
   d="M 85.3,428 H 69.9 L 65.4,415.4 H 43 L 38.6,428 H 23.2 L 46.1,371.2 H 62.9 Z M 62.1,405.6 55.3,386.5 c -0.5,-1.4 -0.8,-3.1 -1.1,-5.1 H 54 c -0.1,1.7 -0.5,3.3 -1.1,5 L 46,405.6 Z"
   id="path4"
   inkscape:connector-curvature="0"
   style="fill:#999999;fill-opacity:1;stroke:#999999;stroke-opacity:1" /><path
   class="st0"
   d="m 158,426 c -4.6,2 -10.6,3 -18,3 -9.7,0 -17.2,-2.6 -22.8,-7.7 -5.5,-5.1 -8.3,-11.9 -8.3,-20.5 0,-9.1 3.1,-16.5 9.3,-22.1 6.2,-5.7 14.3,-8.5 24.2,-8.5 6.1,0 11.3,0.7 15.5,2.1 v 12.3 c -4.2,-2.3 -9,-3.4 -14.4,-3.4 -5.9,0 -10.7,1.7 -14.3,5 -3.6,3.4 -5.4,7.9 -5.4,13.6 0,5.5 1.7,9.9 5.1,13.1 3.4,3.3 8,4.9 13.8,4.9 5.5,0 10.6,-1.2 15.2,-3.6 V 426 Z"
   id="path6"
   inkscape:connector-curvature="0"
   style="fill:#999999;fill-opacity:1;stroke:#999999;stroke-opacity:1" /><path
   class="st0"
   d="m 232.5,426 c -4.6,2 -10.6,3 -18,3 -9.7,0 -17.2,-2.6 -22.8,-7.7 -5.5,-5.1 -8.3,-11.9 -8.3,-20.5 0,-9.1 3.1,-16.5 9.3,-22.1 6.2,-5.7 14.3,-8.5 24.2,-8.5 6.1,0 11.3,0.7 15.5,2.1 v 12.3 c -4.2,-2.3 -9,-3.4 -14.4,-3.4 -5.9,0 -10.7,1.7 -14.3,5 -3.6,3.4 -5.4,7.9 -5.4,13.6 0,5.5 1.7,9.9 5.1,13.1 3.4,3.3 8,4.9 13.8,4.9 5.5,0 10.6,-1.2 15.2,-3.6 V 426 Z"
   id="path8"
   inkscape:connector-curvature="0"
   style="fill:#999999;fill-opacity:1;stroke:#999999;stroke-opacity:1" /><path
   class="st0"
   d="m 286.2,429 c -9,0 -16.4,-2.6 -22,-7.9 -5.7,-5.3 -8.5,-12.2 -8.5,-20.7 0,-9 2.9,-16.2 8.6,-21.8 5.8,-5.5 13.4,-8.3 22.9,-8.3 9,0 16.2,2.7 21.8,8 5.5,5.3 8.3,12.3 8.3,21 0,8.9 -2.9,16.1 -8.6,21.6 -5.7,5.5 -13.2,8.1 -22.5,8.1 z m 0.6,-47.7 c -5,0 -8.9,1.7 -11.8,5 -2.9,3.4 -4.4,7.8 -4.4,13.4 0,5.6 1.5,10.1 4.4,13.3 2.9,3.2 6.8,4.9 11.5,4.9 4.9,0 8.8,-1.6 11.6,-4.8 2.9,-3.2 4.3,-7.6 4.3,-13.2 0,-5.9 -1.4,-10.5 -4.2,-13.7 -2.7,-3.3 -6.5,-4.9 -11.4,-4.9 z"
   id="path10"
   inkscape:connector-curvature="0"
   style="fill:#999999;fill-opacity:1;stroke:#999999;stroke-opacity:1" /><path
   class="st0"
   d="M 397.2,428 H 381 l -9.8,-14.6 c -0.7,-1.1 -1.4,-2.1 -2.1,-3 -0.7,-0.9 -1.4,-1.6 -2,-2.2 -0.7,-0.6 -1.4,-1.1 -2.2,-1.4 -0.7,-0.3 -1.6,-0.5 -2.4,-0.5 h -3.8 V 428 H 344.5 V 371.2 H 367 c 15.3,0 22.9,5.1 22.9,15.4 0,2 -0.3,3.8 -1,5.5 -0.7,1.7 -1.6,3.2 -2.9,4.5 -1.2,1.3 -2.7,2.5 -4.5,3.5 -1.7,1 -3.7,1.7 -5.8,2.3 v 0.2 c 0.9,0.3 1.8,0.7 2.7,1.3 0.9,0.6 1.7,1.3 2.5,2.1 0.8,0.8 1.6,1.6 2.3,2.6 0.7,0.9 1.4,1.8 2,2.7 z m -38.6,-47.2 v 15.8 h 6.1 c 3,0 5.5,-0.8 7.3,-2.4 1.9,-1.6 2.8,-3.6 2.8,-6 0,-5 -3.3,-7.4 -9.9,-7.4 z"
   id="path12"
   inkscape:connector-curvature="0"
   style="fill:#999999;fill-opacity:1;stroke:#999999;stroke-opacity:1" /><path
   class="st0"
   d="m 417.4,428 v -56.8 h 22.3 c 22.3,0 33.5,9.2 33.5,27.7 0,8.8 -3,15.9 -9.1,21.2 -6.1,5.3 -14.2,7.9 -24.4,7.9 z m 14.2,-46.4 v 36 h 7 c 6.1,0 11,-1.7 14.5,-5 3.5,-3.3 5.2,-7.9 5.2,-13.6 0,-5.4 -1.7,-9.7 -5.2,-12.8 -3.5,-3.1 -8.3,-4.7 -14.6,-4.7 h -6.9 z"
   id="path14"
   inkscape:connector-curvature="0"
   style="fill:#999999;fill-opacity:1;stroke:#999999;stroke-opacity:1" /><circle
   style="fill:#999999;fill-opacity:1;stroke:#999999;stroke-opacity:1"
   id="circle18"
   r="5.5"
   cy="19.299999"
   cx="194.60001"
   class="st0" /><circle
   style="fill:#999999;fill-opacity:1;stroke:#999999;stroke-opacity:1"
   id="circle20"
   r="5.5"
   cy="19.299999"
   cx="282.29999"
   class="st0" /><circle
   style="fill:#999999;fill-opacity:1;stroke:#999999;stroke-opacity:1"
   id="circle22"
   r="5.5"
   cy="44.5"
   cx="238.60001"
   class="st0" /><circle
   style="fill:#999999;fill-opacity:1;stroke:#999999;stroke-opacity:1"
   id="circle24"
   r="5.5"
   cy="119.6"
   cx="194.60001"
   class="st0" /><circle
   style="fill:#999999;fill-opacity:1;stroke:#999999;stroke-opacity:1"
   id="circle26"
   r="5.5"
   cy="94.5"
   cx="238.60001"
   class="st0" /><circle
   style="fill:#999999;fill-opacity:1;stroke:#999999;stroke-opacity:1"
   id="circle28"
   r="5.5"
   cy="119.6"
   cx="282.29999"
   class="st0" /><circle
   style="fill:#999999;fill-opacity:1;stroke:#999999;stroke-opacity:1"
   id="circle30"
   r="5.5"
   cy="94.5"
   cx="325.10001"
   class="st0" /><circle
   style="fill:#999999;fill-opacity:1;stroke:#999999;stroke-opacity:1"
   id="circle32"
   r="5.5"
   cy="119.6"
   cx="368.60001"
   class="st0" /><circle
   style="fill:#999999;fill-opacity:1;stroke:#999999;stroke-opacity:1"
   id="circle34"
   r="5.5"
   cy="169.7"
   cx="368.60001"
   class="st0" /><circle
   style="fill:#999999;fill-opacity:1;stroke:#999999;stroke-opacity:1"
   id="circle36"
   r="5.5"
   cy="194.60001"
   cx="325.10001"
   class="st0" /><circle
   style="fill:#999999;fill-opacity:1;stroke:#999999;stroke-opacity:1"
   id="circle38"
   r="5.5"
   cy="169.7"
   cx="282.29999"
   class="st0" /><circle
   style="fill:#999999;fill-opacity:1;stroke:#999999;stroke-opacity:1"
   id="circle40"
   r="5.5"
   cy="169.7"
   cx="194.60001"
   class="st0" /><circle
   style="fill:#999999;fill-opacity:1;stroke:#999999;stroke-opacity:1"
   id="circle42"
   r="5.5"
   cy="244.89999"
   cx="151.7"
   class="st0" /><circle
   style="fill:#999999;fill-opacity:1;stroke:#999999;stroke-opacity:1"
   id="circle44"
   r="5.5"
   cy="269.79999"
   cx="108.5"
   class="st0" /><circle
   style="fill:#999999;fill-opacity:1;stroke:#999999;stroke-opacity:1"
   id="circle46"
   r="5.5"
   cy="269.79999"
   cx="28.299999"
   class="st0" /><circle
   style="fill:#999999;fill-opacity:1;stroke:#999999;stroke-opacity:1"
   id="circle48"
   r="5.5"
   cy="194.60001"
   cx="151.7"
   class="st0" /><circle
   style="fill:#999999;fill-opacity:1;stroke:#999999;stroke-opacity:1"
   id="circle50"
   r="5.5"
   cy="169.7"
   cx="108.3"
   class="st0" /><circle
   style="fill:#999999;fill-opacity:1;stroke:#999999;stroke-opacity:1"
   id="circle52"
   r="5.5"
   cy="119.6"
   cx="108.3"
   class="st0" /><circle
   style="fill:#999999;fill-opacity:1;stroke:#999999;stroke-opacity:1"
   id="circle54"
   r="5.5"
   cy="94.5"
   cx="65"
   class="st0" /><circle
   style="fill:#999999;fill-opacity:1;stroke:#999999;stroke-opacity:1"
   id="circle56"
   r="5.5"
   cy="94.5"
   cx="151.7"
   class="st0" /><circle
   style="fill:#999999;fill-opacity:1;stroke:#999999;stroke-opacity:1"
   id="circle58"
   r="5.5"
   cy="194.60001"
   cx="238.60001"
   class="st0" /><circle
   style="fill:#999999;fill-opacity:1;stroke:#999999;stroke-opacity:1"
   id="circle60"
   r="5.5"
   cy="269.79999"
   cx="282.29999"
   class="st0" /><circle
   style="fill:#999999;fill-opacity:1;stroke:#999999;stroke-opacity:1"
   id="circle62"
   r="5.5"
   cy="244.89999"
   cx="325.10001"
   class="st0" /><circle
   style="fill:#999999;fill-opacity:1;stroke:#999999;stroke-opacity:1"
   id="circle64"
   r="5.5"
   cy="270.79999"
   cx="368.60001"
   class="st0" /><circle
   style="fill:#999999;fill-opacity:1;stroke:#999999;stroke-opacity:1"
   id="circle66"
   r="5.5"
   cy="270.79999"
   cx="466.39999"
   class="st0" /><circle
   style="fill:#999999;fill-opacity:1;stroke:#999999;stroke-opacity:1"
   id="circle68"
   r="5.5"
   cy="448"
   cx="466.39999"
   class="st0" /><circle
   style="fill:#999999;fill-opacity:1;stroke:#999999;stroke-opacity:1"
   id="circle70"
   r="5.5"
   cy="448.39999"
   cx="28.299999"
   class="st0" /><circle
   style="fill:#999999;fill-opacity:1;stroke:#999999;stroke-opacity:1"
   id="circle72"
   r="5.5"
   cy="244.89999"
   cx="238.60001"
   class="st0" /><circle
   style="fill:#999999;fill-opacity:1;stroke:#999999;stroke-opacity:1"
   id="circle74"
   r="5.5"
   cy="269.79999"
   cx="194.60001"
   class="st0" /><circle
   style="fill:#999999;fill-opacity:1;stroke:#999999;stroke-opacity:1"
   id="circle76"
   r="5.5"
   cy="194.60001"
   cx="412.10001"
   class="st0" /><circle
   style="fill:#999999;fill-opacity:1;stroke:#999999;stroke-opacity:1"
   id="circle78"
   r="5.5"
   cy="94.5"
   cx="412.10001"
   class="st0" /><circle
   style="fill:#999999;fill-opacity:1;stroke:#999999;stroke-opacity:1"
   id="circle80"
   r="5.5"
   cy="44.5"
   cx="325.10001"
   class="st0" /><line
   style="fill:#999999;stroke:#999999;stroke-miterlimit:10;fill-opacity:1;stroke-opacity:1"
   id="line82"
   y2="44.5"
   x2="238.60001"
   y1="19.299999"
   x1="194.60001"
   class="st1" /><line
   style="fill:#999999;stroke:#999999;stroke-miterlimit:10;fill-opacity:1;stroke-opacity:1"
   id="line84"
   y2="44.5"
   x2="238.60001"
   y1="19.299999"
   x1="282.29999"
   class="st1" /><line
   style="fill:#999999;stroke:#999999;stroke-miterlimit:10;fill-opacity:1;stroke-opacity:1"
   id="line86"
   y2="44.5"
   x2="238.60001"
   y1="94.5"
   x1="238.60001"
   class="st1" /><line
   style="fill:#999999;stroke:#999999;stroke-miterlimit:10;fill-opacity:1;stroke-opacity:1"
   id="line88"
   y2="94.5"
   x2="238.60001"
   y1="119.6"
   x1="282.29999"
   class="st1" /><line
   style="fill:#999999;stroke:#999999;stroke-miterlimit:10;fill-opacity:1;stroke-opacity:1"
   id="line90"
   y2="94.5"
   x2="238.60001"
   y1="119.6"
   x1="194.60001"
   class="st1" /><line
   style="fill:#999999;stroke:#999999;stroke-miterlimit:10;fill-opacity:1;stroke-opacity:1"
   id="line92"
   y2="119.6"
   x2="194.60001"
   y1="169.7"
   x1="194.60001"
   class="st1" /><line
   style="fill:#999999;stroke:#999999;stroke-miterlimit:10;fill-opacity:1;stroke-opacity:1"
   id="line94"
   y2="169.7"
   x2="194.60001"
   y1="194.60001"
   x1="238.60001"
   class="st1" /><line
   style="fill:#999999;stroke:#999999;stroke-miterlimit:10;fill-opacity:1;stroke-opacity:1"
   id="line96"
   y2="194.60001"
   x2="238.60001"
   y1="169.7"
   x1="282.29999"
   class="st1" /><line
   style="fill:#999999;stroke:#999999;stroke-miterlimit:10;fill-opacity:1;stroke-opacity:1"
   id="line98"
   y2="169.7"
   x2="282.29999"
   y1="120.7"
   x1="282.29999"
   class="st1" /><line
   style="fill:#999999;stroke:#999999;stroke-miterlimit:10;fill-opacity:1;stroke-opacity:1"
   id="line100"
   y2="120.7"
   x2="281.10001"
   y1="94.5"
   x1="325.10001"
   class="st1" /><line
   style="fill:#999999;stroke:#999999;stroke-miterlimit:10;fill-opacity:1;stroke-opacity:1"
   id="line102"
   y2="94.5"
   x2="325.10001"
   y1="44.5"
   x1="325.10001"
   class="st1" /><line
   style="fill:#999999;stroke:#999999;stroke-miterlimit:10;fill-opacity:1;stroke-opacity:1"
   id="line104"
   y2="94.5"
   x2="325.10001"
   y1="119.6"
   x1="368.60001"
   class="st1" /><line
   style="fill:#999999;stroke:#999999;stroke-miterlimit:10;fill-opacity:1;stroke-opacity:1"
   id="line106"
   y2="119.6"
   x2="368.60001"
   y1="94.5"
   x1="412.10001"
   class="st1" /><line
   style="fill:#999999;stroke:#999999;stroke-miterlimit:10;fill-opacity:1;stroke-opacity:1"
   id="line108"
   y2="169.7"
   x2="368.60001"
   y1="194.60001"
   x1="412.10001"
   class="st1" /><line
   style="fill:#999999;stroke:#999999;stroke-miterlimit:10;fill-opacity:1;stroke-opacity:1"
   id="line110"
   y2="171.10001"
   x2="368.60001"
   y1="120.7"
   x1="368.60001"
   class="st1" /><line
   style="fill:#999999;stroke:#999999;stroke-miterlimit:10;fill-opacity:1;stroke-opacity:1"
   id="line112"
   y2="169.7"
   x2="368.60001"
   y1="194.60001"
   x1="325.10001"
   class="st1" /><line
   style="fill:#999999;stroke:#999999;stroke-miterlimit:10;fill-opacity:1;stroke-opacity:1"
   id="line114"
   y2="193.60001"
   x2="325.10001"
   y1="244.89999"
   x1="325.10001"
   class="st1" /><line
   style="fill:#999999;stroke:#999999;stroke-miterlimit:10;fill-opacity:1;stroke-opacity:1"
   id="line116"
   y2="194.60001"
   x2="325.10001"
   y1="169.7"
   x1="282.29999"
   class="st1" /><line
   style="fill:#999999;stroke:#999999;stroke-miterlimit:10;fill-opacity:1;stroke-opacity:1"
   id="line118"
   y2="244.89999"
   x2="325.10001"
   y1="270.79999"
   x1="368.60001"
   class="st1" /><line
   style="fill:#999999;stroke:#999999;stroke-miterlimit:10;fill-opacity:1;stroke-opacity:1"
   id="line120"
   y2="270.79999"
   x2="368.60001"
   y1="270.79999"
   x1="466.39999"
   class="st1" /><line
   style="fill:#999999;stroke:#999999;stroke-miterlimit:10;fill-opacity:1;stroke-opacity:1"
   id="line122"
   y2="244.89999"
   x2="325.10001"
   y1="269.79999"
   x1="282.29999"
   class="st1" /><line
   style="fill:#999999;stroke:#999999;stroke-miterlimit:10;fill-opacity:1;stroke-opacity:1"
   id="line124"
   y2="269.79999"
   x2="282.29999"
   y1="244.89999"
   x1="238.60001"
   class="st1" /><line
   style="fill:#999999;stroke:#999999;stroke-miterlimit:10;fill-opacity:1;stroke-opacity:1"
   id="line126"
   y2="244.89999"
   x2="238.60001"
   y1="194.60001"
   x1="238.60001"
   class="st1" /><line
   style="fill:#999999;stroke:#999999;stroke-miterlimit:10;fill-opacity:1;stroke-opacity:1"
   id="line128"
   y2="244.89999"
   x2="238.60001"
   y1="269.79999"
   x1="194.60001"
   class="st1" /><line
   style="fill:#999999;stroke:#999999;stroke-miterlimit:10;fill-opacity:1;stroke-opacity:1"
   id="line130"
   y2="269.79999"
   x2="194.60001"
   y1="244.89999"
   x1="151.7"
   class="st1" /><line
   style="fill:#999999;stroke:#999999;stroke-miterlimit:10;fill-opacity:1;stroke-opacity:1"
   id="line132"
   y2="244.89999"
   x2="151.7"
   y1="194.60001"
   x1="151.7"
   class="st1" /><line
   style="fill:#999999;stroke:#999999;stroke-miterlimit:10;fill-opacity:1;stroke-opacity:1"
   id="line134"
   y2="194.60001"
   x2="151.7"
   y1="169.7"
   x1="194.60001"
   class="st1" /><line
   style="fill:#999999;stroke:#999999;stroke-miterlimit:10;fill-opacity:1;stroke-opacity:1"
   id="line136"
   y2="194.60001"
   x2="151.7"
   y1="169.7"
   x1="108.3"
   class="st1" /><line
   style="fill:#999999;stroke:#999999;stroke-miterlimit:10;fill-opacity:1;stroke-opacity:1"
   id="line138"
   y2="169.7"
   x2="108.3"
   y1="119.6"
   x1="108.3"
   class="st1" /><line
   style="fill:#999999;stroke:#999999;stroke-miterlimit:10;fill-opacity:1;stroke-opacity:1"
   id="line140"
   y2="119.6"
   x2="108.3"
   y1="94.5"
   x1="151.7"
   class="st1" /><line
   style="fill:#999999;stroke:#999999;stroke-miterlimit:10;fill-opacity:1;stroke-opacity:1"
   id="line142"
   y2="119.6"
   x2="108.3"
   y1="94.5"
   x1="65"
   class="st1" /><line
   style="fill:#999999;stroke:#999999;stroke-miterlimit:10;fill-opacity:1;stroke-opacity:1"
   id="line144"
   y2="244.89999"
   x2="151.7"
   y1="269.79999"
   x1="108.5"
   class="st1" /><line
   style="fill:#999999;stroke:#999999;stroke-miterlimit:10;fill-opacity:1;stroke-opacity:1"
   id="line146"
   y2="269.79999"
   x2="108.5"
   y1="269.79999"
   x1="28.299999"
   class="st1" /><line
   style="fill:#999999;stroke:#999999;stroke-miterlimit:10;fill-opacity:1;stroke-opacity:1"
   id="line148"
   y2="448"
   x2="466.39999"
   y1="448.39999"
   x1="28.299999"
   class="st1" /><path
   style="fill:#999999;fill-opacity:1;stroke:#999999;stroke-opacity:1"
   inkscape:connector-curvature="0"
   id="path150"
   d="M 240.4,161.7"
   class="st2" /><g
   id="g164"
   style="fill:#999999;fill-opacity:1;stroke:#999999;stroke-opacity:1">
			<path
   class="st3"
   d="m 237,172.3 -0.8,0.8 c -1.4,1.4 -1.4,3.7 0,5.2 1.4,1.4 3.7,1.4 5.2,0 l 0.8,-0.8 c 1.4,-1.4 1.4,-3.7 0,-5.2 -1.4,-1.4 -3.8,-1.4 -5.2,0 z"
   id="path152"
   inkscape:connector-curvature="0"
   style="fill:#999999;fill-opacity:1;stroke:#999999;stroke-opacity:1" />
			<path
   class="st3"
   d="m 228.4,154.2 c -1.4,-1.4 -3.7,-1.4 -5.2,0 l -2.3,2.3 c -1.4,1.4 -1.4,3.7 0,5.2 1.4,1.4 3.7,1.4 5.2,0 l 2.3,-2.3 c 1.4,-1.4 1.4,-3.8 0,-5.2 z"
   id="path154"
   inkscape:connector-curvature="0"
   style="fill:#999999;fill-opacity:1;stroke:#999999;stroke-opacity:1" />
			<path
   class="st3"
   d="m 236.1,161.9 c -1.4,-1.4 -3.7,-1.4 -5.2,0 l -2.3,2.3 c -1.4,1.4 -1.4,3.7 0,5.2 1.4,1.4 3.7,1.4 5.2,0 l 2.3,-2.3 c 1.4,-1.5 1.4,-3.8 0,-5.2 z"
   id="path156"
   inkscape:connector-curvature="0"
   style="fill:#999999;fill-opacity:1;stroke:#999999;stroke-opacity:1" />
			
				<circle
   transform="matrix(0.7071,-0.7071,0.7071,0.7071,-43.758,197.1725)"
   class="st3"
   cx="216.10001"
   cy="151.39999"
   id="ellipse158"
   r="3.5999999"
   style="fill:#999999;fill-opacity:1;stroke:#999999;stroke-opacity:1" />
			<path
   class="st3"
   d="m 265.3,149.6 -4.2,-4.2 -14.4,-14.9 -2.7,3.1 v 6.4 c -1.9,2 -8.2,7.5 -13.9,0 l -0.3,-11.9 6.2,-7.4 c 0,0 -9.1,-6.3 -21.5,1.3 -12.3,7.6 -7.5,26.3 -7.5,26.3 1.2,2 3.1,0.4 5.1,-1.9 0.5,-0.6 1.2,-1.1 2,-1.4 l 1.5,-0.5 c 1.6,-0.4 3.4,0.1 4.6,1.4 l 0.1,0.1 c 0.9,1 1.2,2.3 1,3.6 l 2.3,2.1 0.6,-0.5 c 1.9,-1.6 4.7,-1.4 6.4,0.5 l 0.1,0.1 c 1.5,1.8 1.4,4.4 -0.2,6 l 1.8,1.6 0.2,-0.2 c 1.9,-1.6 4.7,-1.4 6.4,0.5 l 0.1,0.1 c 1.4,1.7 1.4,4.1 0.1,5.7 l 3.9,3.5 1,0.9 c 1.3,1.5 3.6,1.7 5.1,0.4 0.9,-0.8 2.1,-2.8 2,-3.9 l -3.5,-4 c -0.6,-0.7 -0.5,-1.7 0.2,-2.3 0.7,-0.6 1.7,-0.5 2.3,0.2 l 3.2,3.7 c 1.1,0.3 3.1,-0.6 4.1,-1.4 1.3,-1 1.8,-3 1.2,-4.4 L 255,154 c -0.6,-0.7 -0.5,-1.7 0.2,-2.3 0.5,-0.4 1.1,-0.5 1.7,-0.2 l 1.5,1.5 2.3,2.7 v 0 c 1.4,0.7 3.4,0.1 4.5,-1 1.5,-1.4 1.5,-3.7 0.1,-5.1 z"
   id="path160"
   inkscape:connector-curvature="0"
   style="fill:#999999;fill-opacity:1;stroke:#999999;stroke-opacity:1" />
			<path
   class="st3"
   d="m 269,148.9 -2.1,-2.5 c -0.5,-0.3 -1.1,-1.2 -1.1,-1.2 l -17.3,-18.4 c 0,0 0,0 0,0 -0.7,-0.8 -1.7,-0.8 -2.7,-0.4 l -4.8,5.3 v 6.7 c 0,2 -1.6,3.6 -3.6,3.6 -2,0 -3.6,-1.6 -3.6,-3.6 v -7.4 -0.6 -3 c 0,0 5,-5.6 11.1,-7.8 l 0.1,-0.1 c 0,0 0.2,0 0.5,-0.1 1.7,-0.5 3.5,-0.8 5.2,-0.5 0,0 0,0 0,0 6.6,-0.1 17.6,2.2 20.8,14.9 0,0.1 1.2,9.3 -2.5,15.1 z"
   id="path162"
   inkscape:connector-curvature="0"
   style="fill:#999999;fill-opacity:1;stroke:#999999;stroke-opacity:1" />
		</g><path
   style="fill:#999999;fill-opacity:1;stroke:#999999;stroke-opacity:1"
   inkscape:connector-curvature="0"
   id="path168"
   d="m 343,122.1 h -1.1 c -1.2,0 -2.2,1 -2.2,2.2 V 139 l -1.6,-0.4 v -18.9 c 0,-1.8 -1.5,-3.3 -3.3,-3.3 -1.8,0 -3.3,1.5 -3.3,3.3 v 17.5 l -2.1,-0.4 v -20.2 c 0,-1.8 -1.5,-3.3 -3.3,-3.3 -1.8,0 -3.3,1.5 -3.3,3.3 v 20.5 l -1.7,0.4 v -17.7 c 0,-1.8 -1.5,-3.3 -3.3,-3.3 -1.8,0 -3.3,1.5 -3.3,3.3 v 13 l 6.5,7.9 9.1,0.8 c 0.8,0.1 1.4,0.8 1.3,1.5 v 0.2 c -0.1,0.8 -0.8,1.4 -1.5,1.3 l -2.6,-0.2 c 0,0 0,0.1 0,0.1 l 0.4,0.4 c 0.1,0.1 0.2,0.1 0.2,0.2 l 8.6,8.8 c 0.5,0.6 0.5,1.5 0,2 -0.6,0.5 -1.5,0.5 -2,0 l -5.4,-5.5 -0.4,0.6 6.2,6.4 c 0.5,0.6 0.5,1.5 0,2 -0.6,0.5 -1.5,0.5 -2,0 l -6.1,-6.3 -0.8,0.5 5.3,5.4 c 0.5,0.6 0.5,1.5 0,2 -0.6,0.5 -1.5,0.5 -2,0 l -5.7,-5.9 -0.6,0.4 4.5,4.6 c 0.4,0.4 0.4,1 0,1.3 l -0.3,0.3 c -0.4,0.4 -1,0.4 -1.3,0 l -4.8,-5 -0.8,-0.8 v 0 l -5.5,-5.6 c 0,0.1 -0.1,0.1 -0.2,0.1 l -2,-2.3 -2.9,-3 c -1.1,-0.6 -2.5,-0.4 -3.6,0.5 l -0.4,0.3 c -1.4,1.2 -1.5,3.2 -0.3,4.6 l 13.7,15.9 v 12.1 h 23 c 0.1,-0.7 0.1,-7.8 0,-12.4 2.8,-2 3,-5.9 3,-5.9 v -19.9 -16 c 0,-1.1 -1,-2.1 -2.1,-2.1 z"
   class="st3" /><g
   id="g178"
   style="fill:#999999;fill-opacity:1;stroke:#999999;stroke-opacity:1">
			<path
   class="st3"
   d="m 232.9,208.6 -3.5,-3 c 0,0 -5.7,-4.2 -7.8,-5.2 -23,-12 -42.4,-5.4 -52.5,0 0,0 -8.5,5 -11.3,8.2 -2.2,1.9 -2.4,5.3 -0.5,7.5 l 0.3,0.4 c 1.9,2.2 5.3,2.4 7.5,0.5 l 4,-3.4 v 0 c 0,0 10.2,-7.7 23.7,-9.2 l 6.4,-0.2 c 6.9,0.4 14.4,2.7 21.6,8.5 l 5,4.3 c 2.2,1.9 5.6,1.6 7.5,-0.6 l 0.3,-0.4 c 1.8,-2.2 1.5,-5.5 -0.7,-7.4 z"
   id="path170"
   inkscape:connector-curvature="0"
   style="fill:#999999;fill-opacity:1;stroke:#999999;stroke-opacity:1" />
			<path
   class="st3"
   d="M 221.1,220.2 217,217 c -0.3,-0.2 -0.6,-0.4 -1,-0.6 -25.1,-16.6 -44,1.9 -44,1.9 l -2.5,2 c -2.1,1.7 -2.4,4.8 -0.7,6.8 l 0.5,0.6 c 1.7,2.1 4.8,2.4 6.8,0.7 l 1.6,-1.3 c 0.7,-0.6 16.7,-13.4 32.6,-2 0.1,0 0.1,0.1 0.2,0.1 l 2,1.5 c 0,0 0,0 0,0 l 2.2,1.7 c 2.1,1.6 5.2,1.2 6.8,-0.9 l 0.5,-0.6 c 1.6,-2 1.2,-5.1 -0.9,-6.7 z"
   id="path172"
   inkscape:connector-curvature="0"
   style="fill:#999999;fill-opacity:1;stroke:#999999;stroke-opacity:1" />
			<path
   class="st3"
   d="m 209.2,231 -1.6,-1.3 c -0.1,-0.1 -0.2,-0.1 -0.3,-0.2 0,0 0,0 0,0 0,0 -13.6,-9.8 -26.1,1.9 l -0.1,0.1 c -0.1,0.1 -0.1,0.2 -0.2,0.2 -0.1,0.1 -0.2,0.2 -0.4,0.3 v 0 c -1.6,1.8 -1.7,4.5 -0.1,6.4 1.7,2.1 4.9,2.4 7,0.7 l 1.6,-1.3 c 0,0 0.1,-0.1 0.1,-0.1 1.9,-1.4 6.4,-3.7 12.3,-0.4 l 1.6,1.3 c 2.1,1.7 5.2,1.4 7,-0.7 1.7,-2 1.4,-5.2 -0.8,-6.9 z"
   id="path174"
   inkscape:connector-curvature="0"
   style="fill:#999999;fill-opacity:1;stroke:#999999;stroke-opacity:1" />
			<path
   class="st3"
   d="m 195.6,243.2 h -0.8 c -3.7,0 -6.8,3 -6.8,6.8 v 0.8 c 0,3.7 3,6.8 6.8,6.8 h 0.8 c 3.7,0 6.8,-3 6.8,-6.8 V 250 c 0,-3.7 -3.1,-6.8 -6.8,-6.8 z"
   id="path176"
   inkscape:connector-curvature="0"
   style="fill:#999999;fill-opacity:1;stroke:#999999;stroke-opacity:1" />
		</g><path
   style="fill:#999999;fill-opacity:1;stroke:#999999;stroke-opacity:1"
   inkscape:connector-curvature="0"
   id="path182"
   d="m 272.8,250.4 v -25.6 h 1.5 v 24.8"
   class="st4" /><g
   id="g188"
   style="fill:#999999;fill-opacity:1;stroke:#999999;stroke-opacity:1">
			<path
   class="st3"
   d="m 294.4,203.6 c -0.3,-0.2 -0.7,-0.4 -1.1,-0.5 2.7,-0.8 4.8,-3.3 4.8,-6.3 v -1.2 c 0,-3.6 -3,-6.6 -6.7,-6.6 h -0.5 c -3.7,0 -6.7,3 -6.7,6.6 v 1.2 c 0,2.9 2,5.4 4.7,6.2 -0.4,0.1 -0.7,0.3 -1,0.4 0,0 0,0 0,0 -2.1,0.3 -3.7,1.1 -5,2 -1.4,-1.4 -3.2,-2.5 -5.6,-2.9 -0.3,-0.2 -0.7,-0.4 -1.1,-0.5 2.7,-0.8 4.7,-3.3 4.7,-6.3 v -1.2 c 0,-3.6 -3,-6.6 -6.6,-6.6 h -0.5 c -3.6,0 -6.6,3 -6.6,6.6 v 1.2 c 0,2.9 2,5.4 4.6,6.2 -0.4,0.1 -0.7,0.3 -1,0.4 0,0 0,0 0,0 -11.5,1.8 -9.8,16.8 -9.8,16.8 v 1.4 c 0,1.2 0.9,2.1 2.1,2.1 1.2,0 2.1,-0.9 2.1,-2.1 v -1.9 c 0,-3.2 0.7,-5.4 1.4,-6.8 -0.1,1 -0.1,2 -0.1,3 v 8.3 1.4 0.6 19.5 2.1 c 0,3.2 2.6,5.9 5.8,6.1 0.4,0.1 0.9,0.1 1.3,0.1 1.4,0 2.7,-0.5 3.8,-1.2 l 0.3,0.2 v -16.5 -1 -5.6 c 0,-0.7 0,-1.4 0.1,-2 -0.5,1 -0.9,2.5 -0.9,4.6 v 1.3 c 0,0.8 -0.6,1.4 -1.4,1.4 -0.8,0 -1.4,-0.6 -1.4,-1.4 v -1 c 0,0 -1.2,-10.1 6.6,-11.4 0,0 0,0 0,0 0.2,-0.1 0.4,-0.2 0.7,-0.3 -1.8,-0.6 -3.1,-2.2 -3.1,-4.2 V 215 c 0,-2.5 2,-4.5 4.5,-4.5 h 0.4 c 2.5,0 4.5,2 4.5,4.5 v 0.8 c 0,2 -1.3,3.7 -3.2,4.2 0.3,0.1 0.5,0.2 0.7,0.3 7.5,1.4 6.4,11.3 6.4,11.3 v 1 c 0,0.8 -0.6,1.4 -1.4,1.4 -0.8,0 -1.4,-0.6 -1.4,-1.4 v -1.3 c 0,-2.8 -0.8,-4.5 -1.4,-5.4 0.1,0.9 0.1,1.8 0.1,2.8 v 5.6 1 18.1 c 0.5,0.2 1.1,0.4 1.7,0.4 h 1.5 c 0.1,0 0.1,0 0.2,0 0,0 0,0 0.1,0 h 1.7 c 2.2,0 4,-1.8 4,-4 v -13.4 h 7.4 l -4.6,-11.2 -1.3,-9.6 c 0,-1.4 0,-2.8 -0.1,-4.1 0.9,1.3 2.1,3.8 2,7.9 v 1.9 c 0,1.2 1,2.1 2.1,2.1 1.2,0 2.1,-0.9 2.1,-2.1 v -1.4 c -0.3,0.4 1.4,-14.2 -9.9,-16.3 z"
   id="path184"
   inkscape:connector-curvature="0"
   style="fill:#999999;fill-opacity:1;stroke:#999999;stroke-opacity:1" />
			<path
   class="st3"
   d="m 282.5,235.4 c -0.8,0 -1.4,0.6 -1.4,1.4 v 13.8 c 0,0.8 0.6,1.4 1.4,1.4 0.8,0 1.4,-0.6 1.4,-1.4 v -13.8 c 0,-0.8 -0.6,-1.4 -1.4,-1.4 z"
   id="path186"
   inkscape:connector-curvature="0"
   style="fill:#999999;fill-opacity:1;stroke:#999999;stroke-opacity:1" />
		</g><path
   class="st3"
   d="m 35.3,481.9 c -1.1,0.8 -2.6,1.1 -4.3,1.1 -2.2,0 -4,-0.9 -5.3,-2.7 -1.3,-1.8 -2,-4.1 -2,-7 0,-3.1 0.7,-5.6 2.2,-7.5 1.5,-1.9 3.4,-2.9 5.7,-2.9 1.5,0 2.7,0.3 3.7,0.8 v 3.2 c -1,-0.8 -2.2,-1.2 -3.4,-1.2 -1.6,0 -3,0.7 -4,2 -1,1.3 -1.5,3.1 -1.5,5.4 0,2.1 0.5,3.8 1.4,5.1 0.9,1.3 2.2,1.9 3.8,1.9 1.4,0 2.7,-0.4 3.7,-1.3 z"
   id="path192"
   inkscape:connector-curvature="0"
   style="fill:#999999;fill-opacity:1;stroke:#999999;stroke-opacity:1" /><path
   class="st3"
   d="m 42.7,483 c -1.7,0 -3,-0.6 -4,-1.9 -1,-1.3 -1.5,-3 -1.5,-5.1 0,-2.3 0.5,-4.1 1.6,-5.4 1,-1.3 2.4,-2 4.2,-2 1.7,0 3,0.6 4,1.9 0.9,1.3 1.4,3 1.4,5.3 0,2.2 -0.5,4 -1.5,5.3 -1.1,1.3 -2.5,1.9 -4.2,1.9 z m 0.1,-11.9 c -1,0 -1.7,0.4 -2.3,1.3 -0.6,0.9 -0.8,2 -0.8,3.5 0,1.4 0.3,2.6 0.8,3.4 0.6,0.8 1.3,1.2 2.3,1.2 1,0 1.7,-0.4 2.2,-1.2 0.5,-0.8 0.8,-2 0.8,-3.5 0,-1.5 -0.3,-2.7 -0.8,-3.5 -0.5,-0.8 -1.2,-1.2 -2.2,-1.2 z"
   id="path194"
   inkscape:connector-curvature="0"
   style="fill:#999999;fill-opacity:1;stroke:#999999;stroke-opacity:1" /><path
   class="st3"
   d="M 60.5,482.7 H 58 v -7.8 c 0,-2.6 -0.7,-3.9 -2.2,-3.9 -0.7,0 -1.4,0.4 -1.9,1.1 -0.5,0.7 -0.7,1.6 -0.7,2.7 v 7.9 h -2.5 v -13.8 h 2.5 v 2.3 0 c 0.8,-1.7 2,-2.6 3.5,-2.6 1.2,0 2.1,0.5 2.7,1.5 0.6,1 0.9,2.4 0.9,4.2 v 8.4 z"
   id="path196"
   inkscape:connector-curvature="0"
   style="fill:#999999;fill-opacity:1;stroke:#999999;stroke-opacity:1" /><path
   class="st3"
   d="m 73.2,482.7 h -2.5 v -7.8 c 0,-2.6 -0.7,-3.9 -2.2,-3.9 -0.7,0 -1.4,0.4 -1.9,1.1 -0.5,0.7 -0.7,1.6 -0.7,2.7 v 7.9 H 63.4 V 468.9 H 66 v 2.3 0 c 0.8,-1.7 2,-2.6 3.5,-2.6 1.2,0 2.1,0.5 2.7,1.5 0.6,1 0.9,2.4 0.9,4.2 v 8.4 z"
   id="path198"
   inkscape:connector-curvature="0"
   style="fill:#999999;fill-opacity:1;stroke:#999999;stroke-opacity:1" /><path
   class="st3"
   d="M 85.4,476.6 H 78 c 0,1.3 0.3,2.3 0.9,3 0.6,0.7 1.4,1 2.4,1 1.2,0 2.2,-0.4 3.2,-1.3 v 2.5 c -1,0.8 -2.3,1.2 -3.9,1.2 -1.6,0 -2.9,-0.6 -3.8,-1.9 -0.9,-1.3 -1.4,-3 -1.4,-5.3 0,-2.1 0.5,-3.9 1.5,-5.3 1,-1.4 2.2,-2 3.7,-2 1.5,0 2.6,0.6 3.4,1.8 0.8,1.2 1.2,2.9 1.2,5.1 v 1.2 z M 83,474.4 c 0,-1.1 -0.2,-2 -0.6,-2.6 -0.4,-0.6 -1,-0.9 -1.7,-0.9 -0.7,0 -1.3,0.3 -1.8,1 -0.5,0.7 -0.8,1.5 -0.9,2.6 h 5 z"
   id="path200"
   inkscape:connector-curvature="0"
   style="fill:#999999;fill-opacity:1;stroke:#999999;stroke-opacity:1" /><path
   class="st3"
   d="m 95.5,482.1 c -0.9,0.6 -1.9,1 -3.1,1 -1.6,0 -2.9,-0.6 -3.9,-1.9 -1,-1.3 -1.5,-2.9 -1.5,-5 0,-2.3 0.5,-4.1 1.6,-5.5 1.1,-1.4 2.5,-2.1 4.3,-2.1 1,0 1.9,0.2 2.6,0.7 v 2.9 c -0.8,-0.7 -1.6,-1.1 -2.4,-1.1 -1,0 -1.9,0.4 -2.6,1.3 -0.7,0.9 -1,2.1 -1,3.5 0,1.4 0.3,2.6 0.9,3.4 0.6,0.8 1.5,1.2 2.5,1.2 0.9,0 1.7,-0.4 2.5,-1.2 v 2.8 z"
   id="path202"
   inkscape:connector-curvature="0"
   style="fill:#999999;fill-opacity:1;stroke:#999999;stroke-opacity:1" /><path
   class="st3"
   d="m 103.7,482.5 c -0.5,0.3 -1.1,0.5 -1.9,0.5 -2.1,0 -3.2,-1.3 -3.2,-3.9 v -7.8 h -1.8 v -2.5 h 1.8 v -3.2 l 2.5,-0.9 v 4.1 h 2.6 v 2.5 h -2.6 v 6.9 c 0,0.8 0.1,1.4 0.4,1.8 0.2,0.4 0.6,0.5 1.2,0.5 0.4,0 0.8,-0.2 1.1,-0.5 v 2.5 z"
   id="path204"
   inkscape:connector-curvature="0"
   style="fill:#999999;fill-opacity:1;stroke:#999999;stroke-opacity:1" /><path
   class="st3"
   d="m 107,466 c -0.4,0 -0.7,-0.2 -1,-0.5 -0.3,-0.3 -0.4,-0.8 -0.4,-1.3 0,-0.5 0.1,-0.9 0.4,-1.3 0.3,-0.3 0.6,-0.5 1,-0.5 0.4,0 0.8,0.2 1.1,0.5 0.3,0.3 0.4,0.8 0.4,1.3 0,0.5 -0.1,0.9 -0.4,1.2 -0.3,0.4 -0.6,0.6 -1.1,0.6 z m 1.3,16.7 h -2.5 v -13.8 h 2.5 z"
   id="path206"
   inkscape:connector-curvature="0"
   style="fill:#999999;fill-opacity:1;stroke:#999999;stroke-opacity:1" /><path
   class="st3"
   d="m 121.1,482.7 h -2.5 v -7.8 c 0,-2.6 -0.7,-3.9 -2.2,-3.9 -0.7,0 -1.4,0.4 -1.9,1.1 -0.5,0.7 -0.7,1.6 -0.7,2.7 v 7.9 h -2.5 v -13.8 h 2.5 v 2.3 0 c 0.8,-1.7 2,-2.6 3.5,-2.6 1.2,0 2.1,0.5 2.7,1.5 0.6,1 0.9,2.4 0.9,4.2 v 8.4 z"
   id="path208"
   inkscape:connector-curvature="0"
   style="fill:#999999;fill-opacity:1;stroke:#999999;stroke-opacity:1" /><path
   class="st3"
   d="m 134,481.6 c 0,5.1 -2,7.6 -6,7.6 -1.4,0 -2.6,-0.3 -3.7,-0.9 v -2.9 c 1.2,0.9 2.3,1.3 3.4,1.3 2.6,0 3.9,-1.6 3.9,-4.8 v -1.5 0 c -0.8,1.8 -2,2.6 -3.7,2.6 -1.3,0 -2.4,-0.6 -3.2,-1.8 -0.8,-1.2 -1.2,-2.9 -1.2,-4.9 0,-2.3 0.4,-4.2 1.3,-5.6 0.9,-1.4 2.1,-2.1 3.6,-2.1 1.4,0 2.5,0.7 3.2,2.2 v 0 -1.9 h 2.5 v 12.7 z m -2.4,-5.2 v -1.8 c 0,-1 -0.3,-1.8 -0.8,-2.5 -0.5,-0.7 -1.1,-1 -1.9,-1 -0.9,0 -1.7,0.4 -2.2,1.3 -0.5,0.9 -0.8,2.1 -0.8,3.7 0,1.4 0.3,2.4 0.8,3.3 0.5,0.8 1.2,1.2 2,1.2 0.8,0 1.5,-0.4 2.1,-1.2 0.5,-0.8 0.8,-1.8 0.8,-3 z"
   id="path210"
   inkscape:connector-curvature="0"
   style="fill:#999999;fill-opacity:1;stroke:#999999;stroke-opacity:1" /><path
   class="st3"
   d="m 151,482.1 c -0.9,0.6 -1.9,1 -3.1,1 -1.6,0 -2.9,-0.6 -3.9,-1.9 -1,-1.3 -1.5,-2.9 -1.5,-5 0,-2.3 0.5,-4.1 1.6,-5.5 1.1,-1.4 2.5,-2.1 4.3,-2.1 1,0 1.9,0.2 2.6,0.7 v 2.9 c -0.8,-0.7 -1.6,-1.1 -2.4,-1.1 -1,0 -1.9,0.4 -2.6,1.3 -0.7,0.9 -1,2.1 -1,3.5 0,1.4 0.3,2.6 0.9,3.4 0.6,0.8 1.5,1.2 2.5,1.2 0.9,0 1.7,-0.4 2.5,-1.2 v 2.8 z"
   id="path212"
   inkscape:connector-curvature="0"
   style="fill:#999999;fill-opacity:1;stroke:#999999;stroke-opacity:1" /><path
   class="st3"
   d="m 161.8,482.7 h -2.4 v -2.2 0 c -0.7,1.7 -1.8,2.5 -3.3,2.5 -1.1,0 -1.9,-0.4 -2.5,-1.1 -0.6,-0.7 -0.9,-1.7 -0.9,-2.9 0,-2.6 1.2,-4.1 3.5,-4.6 l 3.2,-0.6 c 0,-2 -0.7,-3 -2.2,-3 -1.3,0 -2.5,0.6 -3.5,1.7 v -2.7 c 1.1,-0.9 2.5,-1.3 4,-1.3 2.7,0 4.1,1.7 4.1,5.2 z m -2.4,-6.8 -2.3,0.4 c -0.7,0.1 -1.2,0.3 -1.6,0.7 -0.4,0.4 -0.5,0.9 -0.5,1.7 0,0.6 0.2,1.1 0.5,1.4 0.3,0.4 0.8,0.6 1.3,0.6 0.7,0 1.4,-0.3 1.9,-1 0.5,-0.7 0.7,-1.5 0.7,-2.5 z"
   id="path214"
   inkscape:connector-curvature="0"
   style="fill:#999999;fill-opacity:1;stroke:#999999;stroke-opacity:1" /><path
   class="st3"
   d="m 171.1,471.9 c -0.3,-0.3 -0.7,-0.4 -1.3,-0.4 -0.7,0 -1.3,0.4 -1.8,1.3 -0.5,0.8 -0.7,2 -0.7,3.4 v 6.6 h -2.5 V 469 h 2.5 v 2.8 0 c 0.2,-1 0.6,-1.7 1.1,-2.3 0.5,-0.5 1.1,-0.8 1.7,-0.8 0.4,0 0.8,0.1 1,0.3 z"
   id="path216"
   inkscape:connector-curvature="0"
   style="fill:#999999;fill-opacity:1;stroke:#999999;stroke-opacity:1" /><path
   class="st3"
   d="m 181.8,476.6 h -7.4 c 0,1.3 0.3,2.3 0.9,3 0.6,0.7 1.4,1 2.4,1 1.2,0 2.2,-0.4 3.2,-1.3 v 2.5 c -1,0.8 -2.3,1.2 -3.9,1.2 -1.6,0 -2.9,-0.6 -3.8,-1.9 -0.9,-1.3 -1.4,-3 -1.4,-5.3 0,-2.1 0.5,-3.9 1.5,-5.3 1,-1.4 2.2,-2 3.7,-2 1.5,0 2.6,0.6 3.4,1.8 0.8,1.2 1.2,2.9 1.2,5.1 v 1.2 z m -2.4,-2.2 c 0,-1.1 -0.2,-2 -0.6,-2.6 -0.4,-0.6 -1,-0.9 -1.7,-0.9 -0.7,0 -1.3,0.3 -1.8,1 -0.5,0.7 -0.8,1.5 -0.9,2.6 h 5 z"
   id="path218"
   inkscape:connector-curvature="0"
   style="fill:#999999;fill-opacity:1;stroke:#999999;stroke-opacity:1" /><path
   class="st3"
   d="m 189.4,482.3 v -2.9 c 0.9,0.9 1.9,1.3 3,1.3 1.5,0 2.2,-0.6 2.2,-1.7 0,-0.3 -0.1,-0.6 -0.2,-0.8 -0.1,-0.2 -0.3,-0.4 -0.5,-0.6 -0.2,-0.2 -0.5,-0.3 -0.8,-0.5 -0.3,-0.1 -0.6,-0.3 -1,-0.5 -0.4,-0.2 -0.8,-0.5 -1.2,-0.7 -0.4,-0.3 -0.7,-0.5 -0.9,-0.9 -0.2,-0.3 -0.4,-0.7 -0.5,-1.1 -0.1,-0.4 -0.2,-0.9 -0.2,-1.4 0,-0.7 0.1,-1.3 0.4,-1.8 0.2,-0.5 0.6,-0.9 1,-1.3 0.4,-0.4 0.9,-0.6 1.4,-0.8 0.5,-0.2 1.1,-0.3 1.6,-0.3 1,0 1.9,0.2 2.7,0.6 v 2.7 c -0.8,-0.7 -1.6,-1 -2.6,-1 -0.3,0 -0.6,0 -0.8,0.1 -0.3,0.1 -0.5,0.2 -0.6,0.3 -0.2,0.1 -0.3,0.3 -0.4,0.5 -0.1,0.2 -0.1,0.4 -0.1,0.7 0,0.3 0,0.5 0.1,0.8 0.1,0.2 0.2,0.4 0.4,0.5 0.2,0.2 0.4,0.3 0.7,0.4 0.3,0.1 0.6,0.3 0.9,0.4 0.5,0.2 0.9,0.5 1.3,0.7 0.4,0.3 0.7,0.5 0.9,0.9 0.3,0.3 0.5,0.7 0.6,1.1 0.1,0.4 0.2,0.9 0.2,1.5 0,0.7 -0.1,1.3 -0.4,1.8 -0.3,0.5 -0.6,1 -1,1.3 -0.4,0.3 -0.9,0.6 -1.5,0.8 -0.6,0.2 -1.1,0.2 -1.8,0.2 -1,0.4 -2,0.2 -2.9,-0.3 z"
   id="path220"
   inkscape:connector-curvature="0"
   style="fill:#999999;fill-opacity:1;stroke:#999999;stroke-opacity:1" /><path
   class="st3"
   d="m 208.9,468.9 -4.9,16 c -1,2.9 -2.4,4.3 -4.3,4.3 -0.5,0 -0.9,-0.1 -1.3,-0.2 v -2.6 c 0.4,0.2 0.7,0.2 1.1,0.2 0.9,0 1.6,-0.6 2.1,-1.7 l 0.7,-2.3 -4.3,-13.8 h 2.7 l 2.6,10 c 0,0.1 0.1,0.5 0.2,1 h 0.1 c 0,-0.2 0.1,-0.5 0.2,-1 l 2.7,-10.1 h 2.4 z"
   id="path222"
   inkscape:connector-curvature="0"
   style="fill:#999999;fill-opacity:1;stroke:#999999;stroke-opacity:1" /><path
   class="st3"
   d="m 209.8,482.3 v -2.9 c 0.9,0.9 1.9,1.3 3,1.3 1.5,0 2.2,-0.6 2.2,-1.7 0,-0.3 -0.1,-0.6 -0.2,-0.8 -0.1,-0.2 -0.3,-0.4 -0.5,-0.6 -0.2,-0.2 -0.5,-0.3 -0.8,-0.5 -0.3,-0.1 -0.6,-0.3 -1,-0.5 -0.4,-0.2 -0.8,-0.5 -1.2,-0.7 -0.4,-0.3 -0.7,-0.5 -0.9,-0.9 -0.2,-0.3 -0.4,-0.7 -0.5,-1.1 -0.1,-0.4 -0.2,-0.9 -0.2,-1.4 0,-0.7 0.1,-1.3 0.4,-1.8 0.2,-0.5 0.6,-0.9 1,-1.3 0.4,-0.4 0.9,-0.6 1.4,-0.8 0.5,-0.2 1.1,-0.3 1.6,-0.3 1,0 1.9,0.2 2.7,0.6 v 2.7 c -0.8,-0.7 -1.6,-1 -2.6,-1 -0.3,0 -0.6,0 -0.8,0.1 -0.3,0.1 -0.5,0.2 -0.6,0.3 -0.2,0.1 -0.3,0.3 -0.4,0.5 -0.1,0.2 -0.1,0.4 -0.1,0.7 0,0.3 0,0.5 0.1,0.8 0.1,0.2 0.2,0.4 0.4,0.5 0.2,0.2 0.4,0.3 0.7,0.4 0.3,0.1 0.6,0.3 0.9,0.4 0.5,0.2 0.9,0.5 1.3,0.7 0.4,0.3 0.7,0.5 0.9,0.9 0.3,0.3 0.5,0.7 0.6,1.1 0.1,0.4 0.2,0.9 0.2,1.5 0,0.7 -0.1,1.3 -0.4,1.8 -0.3,0.5 -0.6,1 -1,1.3 -0.4,0.3 -0.9,0.6 -1.5,0.8 -0.6,0.2 -1.1,0.2 -1.8,0.2 -1,0.4 -2,0.2 -2.9,-0.3 z"
   id="path224"
   inkscape:connector-curvature="0"
   style="fill:#999999;fill-opacity:1;stroke:#999999;stroke-opacity:1" /><path
   class="st3"
   d="m 225.6,482.5 c -0.5,0.3 -1.1,0.5 -1.9,0.5 -2.1,0 -3.2,-1.3 -3.2,-3.9 v -7.8 h -1.8 v -2.5 h 1.8 v -3.2 l 2.5,-0.9 v 4.1 h 2.6 v 2.5 H 223 v 6.9 c 0,0.8 0.1,1.4 0.4,1.8 0.2,0.4 0.6,0.5 1.2,0.5 0.4,0 0.8,-0.2 1.1,-0.5 v 2.5 z"
   id="path226"
   inkscape:connector-curvature="0"
   style="fill:#999999;fill-opacity:1;stroke:#999999;stroke-opacity:1" /><path
   class="st3"
   d="m 236.8,476.6 h -7.4 c 0,1.3 0.3,2.3 0.9,3 0.6,0.7 1.4,1 2.4,1 1.2,0 2.2,-0.4 3.2,-1.3 v 2.5 c -1,0.8 -2.3,1.2 -3.9,1.2 -1.6,0 -2.9,-0.6 -3.8,-1.9 -0.9,-1.3 -1.4,-3 -1.4,-5.3 0,-2.1 0.5,-3.9 1.5,-5.3 1,-1.4 2.2,-2 3.7,-2 1.5,0 2.6,0.6 3.4,1.8 0.8,1.2 1.2,2.9 1.2,5.1 v 1.2 z m -2.4,-2.2 c 0,-1.1 -0.2,-2 -0.6,-2.6 -0.4,-0.6 -1,-0.9 -1.7,-0.9 -0.7,0 -1.3,0.3 -1.8,1 -0.5,0.7 -0.8,1.5 -0.9,2.6 h 5 z"
   id="path228"
   inkscape:connector-curvature="0"
   style="fill:#999999;fill-opacity:1;stroke:#999999;stroke-opacity:1" /><path
   class="st3"
   d="m 255.4,482.7 h -2.5 v -7.5 c 0,-1.4 -0.2,-2.5 -0.5,-3.1 -0.3,-0.6 -0.9,-1 -1.6,-1 -0.6,0 -1.2,0.4 -1.6,1.2 -0.4,0.8 -0.7,1.8 -0.7,2.9 v 7.5 H 246 v -7.8 c 0,-2.6 -0.7,-3.9 -2.1,-3.9 -0.7,0 -1.2,0.4 -1.6,1.2 -0.4,0.8 -0.6,1.8 -0.6,3 v 7.5 h -2.5 v -13.8 h 2.5 v 2.2 0 c 0.8,-1.7 1.9,-2.5 3.4,-2.5 0.7,0 1.4,0.3 2,0.8 0.6,0.5 0.9,1.2 1.2,2.1 0.8,-1.9 2,-2.9 3.6,-2.9 2.4,0 3.6,1.9 3.6,5.6 v 8.5 z"
   id="path230"
   inkscape:connector-curvature="0"
   style="fill:#999999;fill-opacity:1;stroke:#999999;stroke-opacity:1" /><path
   class="st3"
   d="m 257.7,482.3 v -2.9 c 0.9,0.9 1.9,1.3 3,1.3 1.5,0 2.2,-0.6 2.2,-1.7 0,-0.3 -0.1,-0.6 -0.2,-0.8 -0.1,-0.2 -0.3,-0.4 -0.5,-0.6 -0.2,-0.2 -0.5,-0.3 -0.8,-0.5 -0.3,-0.1 -0.6,-0.3 -1,-0.5 -0.4,-0.2 -0.8,-0.5 -1.2,-0.7 -0.4,-0.3 -0.7,-0.5 -0.9,-0.9 -0.2,-0.3 -0.4,-0.7 -0.5,-1.1 -0.1,-0.4 -0.2,-0.9 -0.2,-1.4 0,-0.7 0.1,-1.3 0.4,-1.8 0.2,-0.5 0.6,-0.9 1,-1.3 0.4,-0.3 0.9,-0.6 1.4,-0.8 0.5,-0.2 1.1,-0.3 1.6,-0.3 1,0 1.9,0.2 2.7,0.6 v 2.7 c -0.8,-0.7 -1.6,-1 -2.6,-1 -0.3,0 -0.6,0 -0.8,0.1 -0.3,0.1 -0.5,0.2 -0.6,0.3 -0.2,0.1 -0.3,0.3 -0.4,0.5 -0.1,0.2 -0.1,0.4 -0.1,0.7 0,0.3 0,0.5 0.1,0.8 0.1,0.2 0.2,0.4 0.4,0.5 0.2,0.2 0.4,0.3 0.7,0.4 0.3,0.1 0.6,0.3 0.9,0.4 0.5,0.2 0.9,0.5 1.3,0.7 0.4,0.3 0.7,0.5 0.9,0.9 0.3,0.3 0.5,0.7 0.6,1.1 0.1,0.4 0.2,0.9 0.2,1.5 0,0.7 -0.1,1.3 -0.4,1.8 -0.3,0.5 -0.6,1 -1,1.3 -0.4,0.3 -0.9,0.6 -1.5,0.8 -0.6,0.2 -1.1,0.2 -1.8,0.2 -1,0.4 -2,0.2 -2.9,-0.3 z"
   id="path232"
   inkscape:connector-curvature="0"
   style="fill:#999999;fill-opacity:1;stroke:#999999;stroke-opacity:1" /><path
   class="st3"
   d="m 270,479.5 -1.6,6.7 h -1.8 l 1.2,-6.7 z"
   id="path234"
   inkscape:connector-curvature="0"
   style="fill:#999999;fill-opacity:1;stroke:#999999;stroke-opacity:1" /><path
   class="st3"
   d="m 278.3,482.3 v -2.9 c 0.9,0.9 1.9,1.3 3,1.3 1.5,0 2.2,-0.6 2.2,-1.7 0,-0.3 -0.1,-0.6 -0.2,-0.8 -0.1,-0.2 -0.3,-0.4 -0.5,-0.6 -0.2,-0.2 -0.5,-0.3 -0.8,-0.5 -0.3,-0.1 -0.6,-0.3 -1,-0.5 -0.4,-0.2 -0.8,-0.5 -1.2,-0.7 -0.4,-0.3 -0.7,-0.5 -0.9,-0.9 -0.2,-0.3 -0.4,-0.7 -0.5,-1.1 -0.1,-0.4 -0.2,-0.9 -0.2,-1.4 0,-0.7 0.1,-1.3 0.4,-1.8 0.2,-0.5 0.6,-0.9 1,-1.3 0.4,-0.3 0.9,-0.6 1.4,-0.8 0.5,-0.2 1.1,-0.3 1.6,-0.3 1,0 1.9,0.2 2.7,0.6 v 2.7 c -0.8,-0.7 -1.6,-1 -2.6,-1 -0.3,0 -0.6,0 -0.8,0.1 -0.3,0.1 -0.5,0.2 -0.6,0.3 -0.2,0.1 -0.3,0.3 -0.4,0.5 -0.1,0.2 -0.1,0.4 -0.1,0.7 0,0.3 0,0.5 0.1,0.8 0.1,0.2 0.2,0.4 0.4,0.5 0.2,0.2 0.4,0.3 0.7,0.4 0.3,0.1 0.6,0.3 0.9,0.4 0.5,0.2 0.9,0.5 1.3,0.7 0.4,0.3 0.7,0.5 0.9,0.9 0.3,0.3 0.5,0.7 0.6,1.1 0.1,0.4 0.2,0.9 0.2,1.5 0,0.7 -0.1,1.3 -0.4,1.8 -0.3,0.5 -0.6,1 -1,1.3 -0.4,0.3 -0.9,0.6 -1.5,0.8 -0.6,0.2 -1.1,0.2 -1.8,0.2 -1,0.4 -2.1,0.2 -2.9,-0.3 z"
   id="path236"
   inkscape:connector-curvature="0"
   style="fill:#999999;fill-opacity:1;stroke:#999999;stroke-opacity:1" /><path
   class="st3"
   d="m 297.5,476.6 h -7.4 c 0,1.3 0.3,2.3 0.9,3 0.6,0.7 1.4,1 2.4,1 1.2,0 2.2,-0.4 3.2,-1.3 v 2.5 c -1,0.8 -2.3,1.2 -3.9,1.2 -1.6,0 -2.9,-0.6 -3.8,-1.9 -0.9,-1.3 -1.4,-3 -1.4,-5.3 0,-2.1 0.5,-3.9 1.5,-5.3 1,-1.4 2.2,-2 3.7,-2 1.5,0 2.6,0.6 3.4,1.8 0.8,1.2 1.2,2.9 1.2,5.1 v 1.2 z m -2.4,-2.2 c 0,-1.1 -0.2,-2 -0.6,-2.6 -0.4,-0.6 -1,-0.9 -1.7,-0.9 -0.7,0 -1.3,0.3 -1.8,1 -0.5,0.7 -0.8,1.5 -0.9,2.6 h 5 z"
   id="path238"
   inkscape:connector-curvature="0"
   style="fill:#999999;fill-opacity:1;stroke:#999999;stroke-opacity:1" /><path
   class="st3"
   d="m 306.2,471.9 c -0.3,-0.3 -0.7,-0.4 -1.3,-0.4 -0.7,0 -1.3,0.4 -1.8,1.3 -0.5,0.8 -0.7,2 -0.7,3.4 v 6.6 h -2.5 V 469 h 2.5 v 2.8 0 c 0.2,-1 0.6,-1.7 1.1,-2.3 0.5,-0.5 1.1,-0.8 1.7,-0.8 0.4,0 0.8,0.1 1,0.3 z"
   id="path240"
   inkscape:connector-curvature="0"
   style="fill:#999999;fill-opacity:1;stroke:#999999;stroke-opacity:1" /><path
   class="st3"
   d="m 318.1,468.9 -4.2,13.8 h -2.7 l -4,-13.8 h 2.7 l 2.4,9.7 c 0.2,0.7 0.3,1.3 0.3,1.9 v 0 c 0.1,-0.7 0.2,-1.3 0.3,-1.8 l 2.5,-9.7 h 2.7 z"
   id="path242"
   inkscape:connector-curvature="0"
   style="fill:#999999;fill-opacity:1;stroke:#999999;stroke-opacity:1" /><path
   class="st3"
   d="m 321,466 c -0.4,0 -0.7,-0.2 -1,-0.5 -0.3,-0.3 -0.4,-0.8 -0.4,-1.3 0,-0.5 0.1,-0.9 0.4,-1.3 0.3,-0.4 0.6,-0.5 1,-0.5 0.4,0 0.8,0.2 1.1,0.5 0.3,0.3 0.4,0.8 0.4,1.3 0,0.5 -0.1,0.9 -0.4,1.2 -0.3,0.4 -0.7,0.6 -1.1,0.6 z m 1.2,16.7 h -2.5 v -13.8 h 2.5 z"
   id="path244"
   inkscape:connector-curvature="0"
   style="fill:#999999;fill-opacity:1;stroke:#999999;stroke-opacity:1" /><path
   class="st3"
   d="m 333.2,482.1 c -0.9,0.6 -1.9,1 -3.1,1 -1.6,0 -2.9,-0.6 -3.9,-1.9 -1,-1.3 -1.5,-2.9 -1.5,-5 0,-2.3 0.5,-4.1 1.6,-5.5 1.1,-1.4 2.5,-2.1 4.3,-2.1 1,0 1.9,0.2 2.6,0.7 v 2.9 c -0.8,-0.7 -1.6,-1.1 -2.4,-1.1 -1,0 -1.9,0.4 -2.6,1.3 -0.7,0.9 -1,2.1 -1,3.5 0,1.4 0.3,2.6 0.9,3.4 0.6,0.8 1.5,1.2 2.5,1.2 0.9,0 1.7,-0.4 2.5,-1.2 v 2.8 z"
   id="path246"
   inkscape:connector-curvature="0"
   style="fill:#999999;fill-opacity:1;stroke:#999999;stroke-opacity:1" /><path
   class="st3"
   d="m 344.9,476.6 h -7.4 c 0,1.3 0.3,2.3 0.9,3 0.6,0.7 1.4,1 2.4,1 1.2,0 2.2,-0.4 3.2,-1.3 v 2.5 c -1,0.8 -2.3,1.2 -3.9,1.2 -1.6,0 -2.9,-0.6 -3.8,-1.9 -0.9,-1.3 -1.4,-3 -1.4,-5.3 0,-2.1 0.5,-3.9 1.5,-5.3 1,-1.4 2.2,-2 3.7,-2 1.5,0 2.6,0.6 3.4,1.8 0.8,1.2 1.2,2.9 1.2,5.1 v 1.2 z m -2.4,-2.2 c 0,-1.1 -0.2,-2 -0.6,-2.6 -0.4,-0.6 -1,-0.9 -1.7,-0.9 -0.7,0 -1.3,0.3 -1.8,1 -0.5,0.7 -0.8,1.5 -0.9,2.6 h 5 z"
   id="path248"
   inkscape:connector-curvature="0"
   style="fill:#999999;fill-opacity:1;stroke:#999999;stroke-opacity:1" /><path
   class="st3"
   d="m 346.5,482.3 v -2.9 c 0.9,0.9 1.9,1.3 3,1.3 1.5,0 2.2,-0.6 2.2,-1.7 0,-0.3 -0.1,-0.6 -0.2,-0.8 -0.1,-0.2 -0.3,-0.4 -0.5,-0.6 -0.2,-0.2 -0.5,-0.3 -0.8,-0.5 -0.3,-0.1 -0.6,-0.3 -1,-0.5 -0.4,-0.2 -0.8,-0.5 -1.2,-0.7 -0.4,-0.3 -0.7,-0.5 -0.9,-0.9 -0.2,-0.3 -0.4,-0.7 -0.5,-1.1 -0.1,-0.4 -0.2,-0.9 -0.2,-1.4 0,-0.7 0.1,-1.3 0.4,-1.8 0.2,-0.5 0.6,-0.9 1,-1.3 0.4,-0.3 0.9,-0.6 1.4,-0.8 0.5,-0.2 1.1,-0.3 1.6,-0.3 1,0 1.9,0.2 2.7,0.6 v 2.7 c -0.8,-0.7 -1.6,-1 -2.6,-1 -0.3,0 -0.6,0 -0.8,0.1 -0.3,0.1 -0.5,0.2 -0.6,0.3 -0.2,0.1 -0.3,0.3 -0.4,0.5 -0.1,0.2 -0.1,0.4 -0.1,0.7 0,0.3 0,0.5 0.1,0.8 0.1,0.2 0.2,0.4 0.4,0.5 0.2,0.2 0.4,0.3 0.7,0.4 0.3,0.1 0.6,0.3 0.9,0.4 0.5,0.2 0.9,0.5 1.3,0.7 0.4,0.3 0.7,0.5 0.9,0.9 0.3,0.3 0.5,0.7 0.6,1.1 0.1,0.4 0.2,0.9 0.2,1.5 0,0.7 -0.1,1.3 -0.4,1.8 -0.3,0.5 -0.6,1 -1,1.3 -0.4,0.3 -0.9,0.6 -1.5,0.8 -0.6,0.2 -1.1,0.2 -1.8,0.2 -1,0.4 -2,0.2 -2.9,-0.3 z"
   id="path250"
   inkscape:connector-curvature="0"
   style="fill:#999999;fill-opacity:1;stroke:#999999;stroke-opacity:1" /><path
   class="st3"
   d="m 370.9,482.7 h -2.4 v -2.2 0 c -0.7,1.7 -1.8,2.5 -3.3,2.5 -1.1,0 -1.9,-0.4 -2.5,-1.1 -0.6,-0.7 -0.9,-1.7 -0.9,-2.9 0,-2.6 1.2,-4.1 3.5,-4.6 l 3.2,-0.6 c 0,-2 -0.7,-3 -2.2,-3 -1.3,0 -2.5,0.6 -3.5,1.7 v -2.7 c 1.1,-0.9 2.5,-1.3 4,-1.3 2.7,0 4.1,1.7 4.1,5.2 z m -2.4,-6.8 -2.3,0.4 c -0.7,0.1 -1.2,0.3 -1.6,0.7 -0.4,0.3 -0.5,0.9 -0.5,1.7 0,0.6 0.2,1.1 0.5,1.4 0.3,0.4 0.8,0.6 1.3,0.6 0.8,0 1.4,-0.3 1.9,-1 0.5,-0.7 0.7,-1.5 0.7,-2.5 z"
   id="path252"
   inkscape:connector-curvature="0"
   style="fill:#999999;fill-opacity:1;stroke:#999999;stroke-opacity:1" /><path
   class="st3"
   d="M 383.5,482.7 H 381 v -7.8 c 0,-2.6 -0.7,-3.9 -2.2,-3.9 -0.7,0 -1.4,0.4 -1.9,1.1 -0.5,0.7 -0.7,1.6 -0.7,2.7 v 7.9 h -2.5 v -13.8 h 2.5 v 2.3 0 c 0.8,-1.7 2,-2.6 3.5,-2.6 1.2,0 2.1,0.5 2.7,1.5 0.6,1 0.9,2.4 0.9,4.2 v 8.4 z"
   id="path254"
   inkscape:connector-curvature="0"
   style="fill:#999999;fill-opacity:1;stroke:#999999;stroke-opacity:1" /><path
   class="st3"
   d="M 396.4,482.7 H 394 v -2.3 0 c -0.8,1.8 -2,2.7 -3.7,2.7 -1.3,0 -2.4,-0.6 -3.2,-1.9 -0.8,-1.2 -1.2,-2.9 -1.2,-5 0,-2.3 0.4,-4.1 1.3,-5.5 0.9,-1.4 2.1,-2.1 3.5,-2.1 1.5,0 2.5,0.7 3.2,2.2 v 0 -8.5 h 2.5 z m -2.4,-6.3 v -1.8 c 0,-1 -0.3,-1.8 -0.8,-2.5 -0.5,-0.7 -1.1,-1 -1.9,-1 -0.9,0 -1.6,0.4 -2.2,1.3 -0.5,0.9 -0.8,2.1 -0.8,3.6 0,1.4 0.3,2.5 0.8,3.3 0.5,0.8 1.2,1.2 2,1.2 0.8,0 1.5,-0.4 2,-1.2 0.6,-0.7 0.9,-1.7 0.9,-2.9 z"
   id="path256"
   inkscape:connector-curvature="0"
   style="fill:#999999;fill-opacity:1;stroke:#999999;stroke-opacity:1" /><path
   class="st3"
   d="m 408.1,480.7 v 0 8.4 h -2.5 v -20.2 h 2.5 v 2.4 0 c 0.8,-1.8 2.1,-2.8 3.7,-2.8 1.4,0 2.5,0.6 3.2,1.8 0.7,1.2 1.2,2.9 1.2,5 0,2.3 -0.4,4.1 -1.3,5.5 -0.9,1.4 -2.1,2.1 -3.6,2.1 -1.4,0.1 -2.4,-0.7 -3.2,-2.2 z m -0.1,-5.5 v 1.7 c 0,1 0.3,1.9 0.8,2.6 0.5,0.7 1.1,1.1 1.9,1.1 0.9,0 1.6,-0.5 2.1,-1.4 0.5,-0.9 0.8,-2.2 0.8,-3.8 0,-1.4 -0.2,-2.4 -0.7,-3.2 -0.5,-0.8 -1.1,-1.2 -2,-1.2 -0.9,0 -1.6,0.4 -2.1,1.2 -0.5,0.8 -0.8,1.8 -0.8,3 z"
   id="path258"
   inkscape:connector-curvature="0"
   style="fill:#999999;fill-opacity:1;stroke:#999999;stroke-opacity:1" /><path
   class="st3"
   d="m 427.9,476.6 h -7.4 c 0,1.3 0.3,2.3 0.9,3 0.6,0.7 1.4,1 2.4,1 1.2,0 2.2,-0.4 3.2,-1.3 v 2.5 c -1,0.8 -2.3,1.2 -3.9,1.2 -1.6,0 -2.9,-0.6 -3.8,-1.9 -0.9,-1.3 -1.4,-3 -1.4,-5.3 0,-2.1 0.5,-3.9 1.5,-5.3 1,-1.4 2.2,-2 3.7,-2 1.5,0 2.6,0.6 3.4,1.8 0.8,1.2 1.2,2.9 1.2,5.1 v 1.2 z m -2.4,-2.2 c 0,-1.1 -0.2,-2 -0.6,-2.6 -0.4,-0.6 -1,-0.9 -1.7,-0.9 -0.7,0 -1.3,0.3 -1.8,1 -0.5,0.7 -0.8,1.5 -0.9,2.6 h 5 z"
   id="path260"
   inkscape:connector-curvature="0"
   style="fill:#999999;fill-opacity:1;stroke:#999999;stroke-opacity:1" /><path
   class="st3"
   d="m 435,483 c -1.7,0 -3,-0.6 -4,-1.9 -1,-1.3 -1.5,-3 -1.5,-5.1 0,-2.3 0.5,-4.1 1.6,-5.4 1,-1.3 2.4,-2 4.2,-2 1.7,0 3,0.6 4,1.9 0.9,1.3 1.4,3 1.4,5.3 0,2.2 -0.5,4 -1.5,5.3 -1.1,1.3 -2.4,1.9 -4.2,1.9 z m 0.2,-11.9 c -1,0 -1.7,0.4 -2.3,1.3 -0.6,0.9 -0.8,2 -0.8,3.5 0,1.4 0.3,2.6 0.8,3.4 0.6,0.8 1.3,1.2 2.3,1.2 1,0 1.7,-0.4 2.2,-1.2 0.5,-0.8 0.8,-2 0.8,-3.5 0,-1.5 -0.3,-2.7 -0.8,-3.5 -0.5,-0.8 -1.3,-1.2 -2.2,-1.2 z"
   id="path262"
   inkscape:connector-curvature="0"
   style="fill:#999999;fill-opacity:1;stroke:#999999;stroke-opacity:1" /><path
   class="st3"
   d="m 445.7,480.7 v 0 8.4 h -2.5 v -20.2 h 2.5 v 2.4 0 c 0.8,-1.8 2.1,-2.8 3.7,-2.8 1.4,0 2.5,0.6 3.2,1.8 0.8,1.2 1.2,2.9 1.2,5 0,2.3 -0.4,4.1 -1.3,5.5 -0.9,1.4 -2.1,2.1 -3.6,2.1 -1.4,0.1 -2.4,-0.7 -3.2,-2.2 z m -0.1,-5.5 v 1.7 c 0,1 0.3,1.9 0.8,2.6 0.5,0.7 1.1,1.1 1.9,1.1 0.9,0 1.6,-0.5 2.1,-1.4 0.5,-0.9 0.8,-2.2 0.8,-3.8 0,-1.4 -0.2,-2.4 -0.7,-3.2 -0.5,-0.8 -1.1,-1.2 -2,-1.2 -0.9,0 -1.6,0.4 -2.1,1.2 -0.5,0.8 -0.8,1.8 -0.8,3 z"
   id="path264"
   inkscape:connector-curvature="0"
   style="fill:#999999;fill-opacity:1;stroke:#999999;stroke-opacity:1" /><path
   class="st3"
   d="m 458.8,482.7 h -2.5 v -20.4 h 2.5 z"
   id="path266"
   inkscape:connector-curvature="0"
   style="fill:#999999;fill-opacity:1;stroke:#999999;stroke-opacity:1" /><path
   class="st3"
   d="m 471.2,476.6 h -7.4 c 0,1.3 0.3,2.3 0.9,3 0.6,0.7 1.4,1 2.4,1 1.2,0 2.2,-0.4 3.2,-1.3 v 2.5 c -1,0.8 -2.3,1.2 -3.9,1.2 -1.6,0 -2.9,-0.6 -3.8,-1.9 -0.9,-1.3 -1.4,-3 -1.4,-5.3 0,-2.1 0.5,-3.9 1.5,-5.3 1,-1.4 2.2,-2 3.7,-2 1.5,0 2.6,0.6 3.4,1.8 0.8,1.2 1.2,2.9 1.2,5.1 v 1.2 z m -2.4,-2.2 c 0,-1.1 -0.2,-2 -0.6,-2.6 -0.4,-0.6 -1,-0.9 -1.7,-0.9 -0.7,0 -1.3,0.3 -1.8,1 -0.5,0.7 -0.8,1.5 -0.9,2.6 h 5 z"
   id="path268"
   inkscape:connector-curvature="0"
   style="fill:#999999;fill-opacity:1;stroke:#999999;stroke-opacity:1" /><path
   class="st3"
   d="m 77.7,349 v -31.1 c 0,-2.9 0.1,-6.2 0.3,-9.7 l 0.1,-2.6 h -0.5 c -0.9,4.5 -1.5,7.6 -2,9.3 L 67.1,349 H 50.5 l -9,-33.7 c -0.2,-0.8 -0.9,-4.1 -1.9,-9.7 h -0.5 c 0.4,8.9 0.6,14.4 0.6,16.6 V 349 H 24.3 v -56.8 h 26.3 l 8,30.9 c 0.2,0.6 0.4,1.9 0.8,3.9 0.3,1.9 0.5,3.4 0.6,4.5 h 0.2 c 0.3,-2.4 0.8,-5.2 1.4,-8.5 l 7.5,-30.7 H 95 V 349 Z"
   id="path272"
   inkscape:connector-curvature="0"
   style="fill:#999999;fill-opacity:1;stroke:#999999;stroke-opacity:1" /><path
   class="st3"
   d="m 106.6,349 v -56.8 h 17.6 V 349 Z"
   id="path274"
   inkscape:connector-curvature="0"
   style="fill:#999999;fill-opacity:1;stroke:#999999;stroke-opacity:1" /><path
   class="st3"
   d="m 190.7,319.9 c 0,5.8 -1.2,10.8 -3.7,15.3 -2.5,4.5 -6,7.8 -10.6,10.2 -4.6,2.4 -9.9,3.6 -16,3.6 h -24.7 v -56.8 h 24.2 c 20.5,0 30.8,9.2 30.8,27.7 z M 172,320 c 0,-2.8 -0.6,-5.3 -1.7,-7.5 -1.2,-2.2 -2.8,-3.9 -4.9,-5.1 -2.1,-1.2 -4.7,-1.8 -7.6,-1.8 h -4.5 v 30 h 4.9 c 4.2,0 7.6,-1.4 10.1,-4.2 2.4,-2.8 3.7,-6.6 3.7,-11.4 z"
   id="path276"
   inkscape:connector-curvature="0"
   style="fill:#999999;fill-opacity:1;stroke:#999999;stroke-opacity:1" /><path
   class="st3"
   d="m 198.9,349 v -56.8 h 17.6 v 43.4 h 20.1 V 349 Z"
   id="path278"
   inkscape:connector-curvature="0"
   style="fill:#999999;fill-opacity:1;stroke:#999999;stroke-opacity:1" /><path
   class="st3"
   d="M 280.6,349 278,338.5 h -17.4 l -2.8,10.5 h -19 l 20.1,-56.8 h 21.8 l 18.9,56.8 z m -11.1,-44.4 h -0.4 c -0.1,0.6 -0.2,1.7 -0.6,3.1 -0.3,1.5 -2,7.7 -4.9,18.7 h 11.2 L 270.7,311 c -0.6,-2.3 -1,-4.5 -1.2,-6.4 z"
   id="path280"
   inkscape:connector-curvature="0"
   style="fill:#999999;fill-opacity:1;stroke:#999999;stroke-opacity:1" /><path
   class="st3"
   d="m 347.3,349 -20.6,-27.4 c -1.6,-2.2 -3,-4.1 -4,-5.9 h -0.2 c 0.2,2.8 0.2,5.9 0.2,9.4 V 349 H 306.4 V 292.2 H 323 l 19.7,26.1 c 0.2,0.3 0.5,0.8 0.9,1.2 0.4,0.5 0.7,1 1.1,1.5 0.4,0.5 0.7,1 1,1.5 0.3,0.5 0.5,0.9 0.7,1.3 h 0.2 c -0.2,-1.2 -0.2,-3.2 -0.2,-6 v -25.5 h 16.3 V 349 Z"
   id="path282"
   inkscape:connector-curvature="0"
   style="fill:#999999;fill-opacity:1;stroke:#999999;stroke-opacity:1" /><path
   class="st3"
   d="m 429.2,319.9 c 0,5.8 -1.2,10.8 -3.7,15.3 -2.5,4.5 -6,7.8 -10.6,10.2 -4.6,2.4 -9.9,3.6 -16,3.6 h -24.7 v -56.8 h 24.2 c 20.5,0 30.8,9.2 30.8,27.7 z m -18.7,0.1 c 0,-2.8 -0.6,-5.3 -1.7,-7.5 -1.2,-2.2 -2.8,-3.9 -4.9,-5.1 -2.1,-1.2 -4.7,-1.8 -7.6,-1.8 h -4.5 v 30 h 4.9 c 4.2,0 7.6,-1.4 10.1,-4.2 2.5,-2.8 3.7,-6.6 3.7,-11.4 z"
   id="path284"
   inkscape:connector-curvature="0"
   style="fill:#999999;fill-opacity:1;stroke:#999999;stroke-opacity:1" /><path
   class="st3"
   d="m 478,331.8 c 0,3.8 -1,7.1 -3.1,9.9 -2.1,2.8 -5,4.9 -8.7,6.3 -3.7,1.4 -8.3,2.1 -13.5,2.1 -6.1,0 -11.7,-1 -16.8,-3 v -15.6 c 2.4,1.7 5.1,3.1 8.1,4.2 3,1.1 5.7,1.6 8.3,1.6 1.9,0 3.4,-0.3 4.5,-1 1.1,-0.7 1.6,-1.7 1.6,-3 0,-0.9 -0.3,-1.7 -0.8,-2.4 -0.5,-0.7 -1.3,-1.4 -2.4,-2 -1.1,-0.6 -3.1,-1.4 -6,-2.5 -9.4,-3.5 -14.1,-9.2 -14.1,-17 0,-5.5 2.1,-9.9 6.4,-13.2 4.3,-3.3 10,-4.9 17.3,-4.9 2,0 3.9,0.1 5.6,0.2 1.7,0.2 3.3,0.4 4.7,0.6 1.4,0.2 3.4,0.7 5.9,1.3 v 14.5 c -4.9,-2.6 -9.7,-3.9 -14.5,-3.9 -2,0 -3.5,0.4 -4.7,1.1 -1.2,0.7 -1.8,1.7 -1.8,2.9 0,1.2 0.5,2.2 1.4,3 1,0.8 3,1.8 6,3 6.1,2.4 10.3,5 12.8,7.8 2.5,2.8 3.8,6.1 3.8,10 z"
   id="path286"
   inkscape:connector-curvature="0"
   style="fill:#999999;fill-opacity:1;stroke:#999999;stroke-opacity:1" />
</svg>